<svg xmlns="http://www.w3.org/2000/svg" xmlns:xlink="http://www.w3.org/1999/xlink" viewBox="0 0 1157.73 825.99"><defs><style>.cls-1,.cls-120,.cls-6{fill:#10455b;}.cls-1,.cls-104,.cls-105,.cls-108,.cls-116,.cls-67,.cls-9{opacity:0.1;}.cls-1,.cls-104,.cls-105,.cls-108,.cls-112,.cls-116,.cls-117,.cls-118,.cls-120,.cls-67{isolation:isolate;}.cls-2{fill:url(#linear-gradient);}.cls-3{fill:#f6f7f9;}.cls-4{fill:#534d72;}.cls-118,.cls-5{opacity:0.2;}.cls-7{fill:url(#linear-gradient-2);}.cls-8{fill:url(#linear-gradient-3);}.cls-10{fill:url(#linear-gradient-4);}.cls-11{fill:url(#linear-gradient-6);}.cls-12{fill:url(#linear-gradient-7);}.cls-13{fill:url(#linear-gradient-8);}.cls-14{fill:url(#linear-gradient-9);}.cls-15{fill:url(#linear-gradient-10);}.cls-16{fill:url(#linear-gradient-11);}.cls-17{fill:url(#linear-gradient-12);}.cls-18{fill:url(#linear-gradient-13);}.cls-19{fill:url(#linear-gradient-14);}.cls-20{fill:url(#linear-gradient-15);}.cls-21{fill:url(#linear-gradient-16);}.cls-22{fill:url(#linear-gradient-17);}.cls-23{fill:url(#linear-gradient-18);}.cls-24{fill:url(#linear-gradient-19);}.cls-25{fill:url(#linear-gradient-20);}.cls-26{fill:url(#linear-gradient-21);}.cls-112,.cls-27{opacity:0.03;}.cls-28{fill:url(#linear-gradient-23);}.cls-29{fill:url(#linear-gradient-24);}.cls-30{fill:url(#linear-gradient-26);}.cls-31{fill:url(#linear-gradient-27);}.cls-32{fill:url(#linear-gradient-28);}.cls-33{fill:url(#linear-gradient-29);}.cls-34{fill:url(#linear-gradient-30);}.cls-35{fill:url(#linear-gradient-31);}.cls-36{fill:url(#linear-gradient-32);}.cls-37{fill:url(#linear-gradient-33);}.cls-38{fill:url(#linear-gradient-34);}.cls-39{fill:url(#linear-gradient-35);}.cls-40{fill:url(#linear-gradient-36);}.cls-41{fill:url(#linear-gradient-37);}.cls-42{fill:url(#linear-gradient-38);}.cls-43{fill:url(#linear-gradient-39);}.cls-44{fill:url(#linear-gradient-40);}.cls-45{fill:url(#linear-gradient-41);}.cls-46{fill:url(#linear-gradient-42);}.cls-47{fill:url(#linear-gradient-44);}.cls-48{fill:url(#linear-gradient-45);}.cls-49{fill:url(#linear-gradient-46);}.cls-50{fill:url(#linear-gradient-47);}.cls-51{fill:url(#linear-gradient-48);}.cls-52{fill:url(#linear-gradient-49);}.cls-53{fill:url(#linear-gradient-50);}.cls-54{fill:url(#linear-gradient-51);}.cls-55{fill:url(#linear-gradient-52);}.cls-56{fill:url(#linear-gradient-53);}.cls-57{fill:url(#linear-gradient-54);}.cls-58{fill:url(#linear-gradient-55);}.cls-59{fill:url(#linear-gradient-56);}.cls-60{fill:url(#linear-gradient-57);}.cls-61{fill:url(#linear-gradient-58);}.cls-62{fill:url(#linear-gradient-59);}.cls-63{fill:url(#linear-gradient-60);}.cls-64{fill:url(#linear-gradient-61);}.cls-65{fill:url(#linear-gradient-62);}.cls-66{fill:url(#linear-gradient-63);}.cls-67{fill:url(#linear-gradient-64);}.cls-68{fill:url(#linear-gradient-65);}.cls-69{fill:url(#linear-gradient-66);}.cls-70{fill:url(#linear-gradient-67);}.cls-71{fill:url(#linear-gradient-68);}.cls-72{fill:url(#linear-gradient-69);}.cls-73{fill:url(#linear-gradient-70);}.cls-74{fill:url(#linear-gradient-71);}.cls-75{fill:url(#linear-gradient-72);}.cls-76{fill:url(#linear-gradient-73);}.cls-77{fill:url(#linear-gradient-74);}.cls-78{fill:url(#linear-gradient-75);}.cls-79{fill:url(#linear-gradient-76);}.cls-80{fill:url(#linear-gradient-77);}.cls-81{fill:url(#linear-gradient-78);}.cls-82{fill:url(#linear-gradient-79);}.cls-83{fill:url(#linear-gradient-80);}.cls-84{fill:url(#linear-gradient-81);}.cls-85{fill:url(#linear-gradient-82);}.cls-86{fill:url(#linear-gradient-83);}.cls-87{fill:url(#linear-gradient-84);}.cls-88{fill:url(#linear-gradient-85);}.cls-89{fill:url(#linear-gradient-86);}.cls-90{fill:url(#linear-gradient-87);}.cls-91{fill:url(#linear-gradient-88);}.cls-92{fill:url(#linear-gradient-89);}.cls-93{fill:url(#linear-gradient-90);}.cls-94{fill:url(#linear-gradient-91);}.cls-95{fill:url(#linear-gradient-92);}.cls-96{fill:url(#linear-gradient-93);}.cls-97{fill:url(#linear-gradient-94);}.cls-98{fill:url(#linear-gradient-95);}.cls-99{fill:url(#linear-gradient-96);}.cls-100{fill:url(#linear-gradient-97);}.cls-101{fill:url(#linear-gradient-98);}.cls-102{fill:url(#linear-gradient-99);}.cls-103{fill:url(#linear-gradient-100);}.cls-104{fill:url(#linear-gradient-101);}.cls-105{fill:url(#linear-gradient-102);}.cls-106{fill:#9d9cb5;}.cls-107{fill:#e4e3f9;}.cls-109,.cls-116{fill:none;}.cls-110{fill:#535461;}.cls-111{fill:#5e52ad;}.cls-113{fill:#784d55;}.cls-114{fill:#f8bdc5;}.cls-115{fill:#ffc075;}.cls-116{stroke:#000;stroke-miterlimit:10;}.cls-117{fill:#fff;}.cls-117,.cls-120{opacity:0.5;}.cls-119{fill:#a8a8a8;}</style><linearGradient id="linear-gradient" x1="418.2" y1="285.66" x2="418.2" y2="817.36" gradientTransform="matrix(1, 0, 0, -1, 0, 826.02)" gradientUnits="userSpaceOnUse"><stop offset="0" stop-color="gray" stop-opacity="0.25"/><stop offset="0.54" stop-color="gray" stop-opacity="0.12"/><stop offset="1" stop-color="gray" stop-opacity="0.1"/></linearGradient><linearGradient id="linear-gradient-2" x1="561.49" y1="374.17" x2="561.49" y2="374.23" gradientTransform="matrix(1, 0, 0, -1, -21.14, 789.01)" xlink:href="#linear-gradient"/><linearGradient id="linear-gradient-3" x1="566.8" y1="314.81" x2="566.8" y2="374.15" gradientTransform="matrix(1, 0, 0, -1, -21.14, 789.01)" xlink:href="#linear-gradient"/><linearGradient id="linear-gradient-4" x1="566.43" y1="320.78" x2="566.43" y2="325.08" gradientTransform="matrix(1, 0, 0, -1, -21.14, 789.01)" xlink:href="#linear-gradient"/><linearGradient id="linear-gradient-6" x1="573.32" y1="362.15" x2="573.32" y2="368.52" gradientTransform="matrix(1, 0, 0, -1, -21.14, 789.01)" xlink:href="#linear-gradient"/><linearGradient id="linear-gradient-7" x1="574.04" y1="359.41" x2="574.04" y2="364.14" gradientTransform="matrix(1, 0, 0, -1, -21.14, 789.01)" xlink:href="#linear-gradient"/><linearGradient id="linear-gradient-8" x1="571.01" y1="354.37" x2="571.01" y2="360.24" gradientTransform="matrix(1, 0, 0, -1, -21.14, 789.01)" xlink:href="#linear-gradient"/><linearGradient id="linear-gradient-9" x1="569.75" y1="349.2" x2="569.75" y2="353.67" gradientTransform="matrix(1, 0, 0, -1, -21.14, 789.01)" xlink:href="#linear-gradient"/><linearGradient id="linear-gradient-10" x1="567.96" y1="343.92" x2="567.96" y2="351.27" gradientTransform="matrix(1, 0, 0, -1, -21.14, 789.01)" xlink:href="#linear-gradient"/><linearGradient id="linear-gradient-11" x1="566.98" y1="342.27" x2="566.98" y2="347.22" gradientTransform="matrix(1, 0, 0, -1, -21.14, 789.01)" xlink:href="#linear-gradient"/><linearGradient id="linear-gradient-12" x1="569.17" y1="339.45" x2="569.17" y2="343.45" gradientTransform="matrix(1, 0, 0, -1, -21.14, 789.01)" xlink:href="#linear-gradient"/><linearGradient id="linear-gradient-13" x1="565.01" y1="330.21" x2="565.01" y2="337.97" gradientTransform="matrix(1, 0, 0, -1, -21.14, 789.01)" xlink:href="#linear-gradient"/><linearGradient id="linear-gradient-14" x1="567.75" y1="332.3" x2="567.75" y2="335.39" gradientTransform="matrix(1, 0, 0, -1, -21.14, 789.01)" xlink:href="#linear-gradient"/><linearGradient id="linear-gradient-15" x1="563.92" y1="323.98" x2="563.92" y2="333.34" gradientTransform="matrix(1, 0, 0, -1, -21.14, 789.01)" xlink:href="#linear-gradient"/><linearGradient id="linear-gradient-16" x1="564.19" y1="317.7" x2="564.19" y2="328.98" gradientTransform="matrix(1, 0, 0, -1, -21.14, 789.01)" xlink:href="#linear-gradient"/><linearGradient id="linear-gradient-17" x1="589.7" y1="317.77" x2="589.7" y2="364.31" gradientTransform="matrix(1, 0, 0, -1, -21.14, 789.01)" xlink:href="#linear-gradient"/><linearGradient id="linear-gradient-18" x1="637.23" y1="314.58" x2="637.23" y2="365.26" gradientTransform="matrix(1, 0, 0, -1, -21.14, 789.01)" xlink:href="#linear-gradient"/><linearGradient id="linear-gradient-19" x1="593.96" y1="315.5" x2="593.96" y2="365.26" gradientTransform="matrix(1, 0, 0, -1, -21.14, 789.01)" xlink:href="#linear-gradient"/><linearGradient id="linear-gradient-20" x1="556.36" y1="314.87" x2="556.36" y2="374.17" gradientTransform="matrix(1, 0, 0, -1, -21.14, 789.01)" xlink:href="#linear-gradient"/><linearGradient id="linear-gradient-21" x1="777.06" y1="15.95" x2="777.06" y2="146.77" gradientTransform="matrix(1, 0, 0, -1, -21.14, 789.01)" xlink:href="#linear-gradient"/><linearGradient id="linear-gradient-23" x1="858.16" y1="32.08" x2="858.16" y2="239.56" gradientTransform="matrix(1, 0, 0, -1, -21.14, 789.01)" xlink:href="#linear-gradient"/><linearGradient id="linear-gradient-24" x1="777.02" y1="363.02" x2="777.02" y2="441.16" xlink:href="#linear-gradient"/><linearGradient id="linear-gradient-26" x1="693.33" y1="170.23" x2="693.33" y2="259.36" gradientTransform="matrix(1, 0, 0, -1, -21.14, 789.01)" xlink:href="#linear-gradient"/><linearGradient id="linear-gradient-27" x1="784.03" y1="232.87" x2="784.03" y2="380.59" gradientTransform="matrix(1, 0, 0, -1, -21.14, 789.01)" xlink:href="#linear-gradient"/><linearGradient id="linear-gradient-28" x1="789.54" y1="346.78" x2="789.54" y2="380.59" gradientTransform="matrix(1, 0, 0, -1, -21.14, 789.01)" xlink:href="#linear-gradient"/><linearGradient id="linear-gradient-29" x1="769.73" y1="385.79" x2="769.73" y2="466.87" xlink:href="#linear-gradient"/><linearGradient id="linear-gradient-30" x1="784.03" y1="232.87" x2="784.03" y2="338.65" gradientTransform="matrix(1, 0, 0, -1, -21.14, 789.01)" xlink:href="#linear-gradient"/><linearGradient id="linear-gradient-31" x1="782.13" y1="132.33" x2="782.13" y2="335.38" gradientTransform="matrix(1, 0, 0, -1, -21.14, 789.01)" xlink:href="#linear-gradient"/><linearGradient id="linear-gradient-32" x1="782.13" y1="134.34" x2="782.13" y2="337.39" gradientTransform="matrix(1, 0, 0, -1, -21.14, 789.01)" xlink:href="#linear-gradient"/><linearGradient id="linear-gradient-33" x1="693.33" y1="235.39" x2="693.33" y2="259.36" gradientTransform="matrix(1, 0, 0, -1, -21.14, 789.01)" xlink:href="#linear-gradient"/><linearGradient id="linear-gradient-34" x1="694.67" y1="237.37" x2="694.67" y2="304.9" gradientTransform="matrix(1, 0, 0, -1, -21.14, 789.01)" xlink:href="#linear-gradient"/><linearGradient id="linear-gradient-35" x1="674.77" y1="167.04" x2="674.77" y2="335.34" gradientTransform="matrix(1, 0, 0, -1, -21.14, 789.01)" xlink:href="#linear-gradient"/><linearGradient id="linear-gradient-36" x1="825.98" y1="50.55" x2="825.98" y2="89.22" xlink:href="#linear-gradient"/><linearGradient id="linear-gradient-37" x1="816.8" y1="54.18" x2="816.8" y2="89.2" xlink:href="#linear-gradient"/><linearGradient id="linear-gradient-38" x1="689.21" y1="167.04" x2="689.21" y2="179.93" gradientTransform="matrix(1, 0, 0, -1, -21.14, 789.01)" xlink:href="#linear-gradient"/><linearGradient id="linear-gradient-39" x1="750.15" y1="15.1" x2="750.15" y2="177.92" gradientTransform="matrix(1, 0, 0, -1, -21.14, 789.01)" xlink:href="#linear-gradient"/><linearGradient id="linear-gradient-40" x1="737.11" y1="29.84" x2="737.11" y2="165.38" gradientTransform="matrix(1, 0, 0, -1, -21.14, 789.01)" xlink:href="#linear-gradient"/><linearGradient id="linear-gradient-41" x1="735.09" y1="27.83" x2="735.09" y2="163.37" gradientTransform="matrix(1, 0, 0, -1, -21.14, 789.01)" xlink:href="#linear-gradient"/><linearGradient id="linear-gradient-42" x1="735.07" y1="29.84" x2="735.07" y2="165.38" gradientTransform="matrix(1, 0, 0, -1, -21.14, 789.01)" xlink:href="#linear-gradient"/><linearGradient id="linear-gradient-44" x1="689.05" y1="53.78" x2="689.05" y2="90.48" gradientTransform="matrix(1, 0, 0, -1, -21.14, 789.01)" xlink:href="#linear-gradient"/><linearGradient id="linear-gradient-45" x1="794.32" y1="78.58" x2="794.32" y2="118.36" xlink:href="#linear-gradient"/><linearGradient id="linear-gradient-46" x1="812.49" y1="41.57" x2="812.49" y2="67.19" gradientTransform="matrix(1, 0, 0, -1, -21.14, 789.01)" xlink:href="#linear-gradient"/><linearGradient id="linear-gradient-47" x1="805.21" y1="-7.35" x2="805.21" y2="66.14" gradientTransform="matrix(1, 0, 0, -1, -21.14, 789.01)" xlink:href="#linear-gradient"/><linearGradient id="linear-gradient-48" x1="805.2" y1="-7.35" x2="805.2" y2="21.81" gradientTransform="matrix(1, 0, 0, -1, -21.14, 789.01)" xlink:href="#linear-gradient"/><linearGradient id="linear-gradient-49" x1="777.32" y1="86.52" x2="777.32" y2="89.22" xlink:href="#linear-gradient"/><linearGradient id="linear-gradient-50" x1="780.06" y1="75.88" x2="780.06" y2="78.58" xlink:href="#linear-gradient"/><linearGradient id="linear-gradient-51" x1="779.32" y1="79.83" x2="779.32" y2="82.53" xlink:href="#linear-gradient"/><linearGradient id="linear-gradient-52" x1="780.06" y1="70.57" x2="780.06" y2="73.27" xlink:href="#linear-gradient"/><linearGradient id="linear-gradient-53" x1="773.47" y1="65.07" x2="773.47" y2="67.77" xlink:href="#linear-gradient"/><linearGradient id="linear-gradient-54" x1="862.65" y1="13.55" x2="862.65" y2="51.38" gradientTransform="matrix(1, 0, 0, -1, -21.14, 789.01)" xlink:href="#linear-gradient"/><linearGradient id="linear-gradient-55" x1="907.22" y1="11.63" x2="907.22" y2="65.58" gradientTransform="matrix(1, 0, 0, -1, -21.14, 789.01)" xlink:href="#linear-gradient"/><linearGradient id="linear-gradient-56" x1="907.21" y1="27.86" x2="907.21" y2="64.14" gradientTransform="matrix(1, 0, 0, -1, -21.14, 789.01)" xlink:href="#linear-gradient"/><linearGradient id="linear-gradient-57" x1="868.87" y1="62.31" x2="868.87" y2="214.11" gradientTransform="matrix(1, 0, 0, -1, -21.14, 789.01)" xlink:href="#linear-gradient"/><linearGradient id="linear-gradient-58" x1="871.93" y1="36.19" x2="871.93" y2="214.11" gradientTransform="matrix(1, 0, 0, -1, -21.14, 789.01)" xlink:href="#linear-gradient"/><linearGradient id="linear-gradient-59" x1="816.91" y1="64.15" x2="816.91" y2="81.35" gradientTransform="matrix(1, 0, 0, -1, -21.14, 789.01)" xlink:href="#linear-gradient"/><linearGradient id="linear-gradient-60" x1="870.91" y1="36.19" x2="870.91" y2="223.31" gradientTransform="matrix(1, 0, 0, -1, -21.14, 789.01)" xlink:href="#linear-gradient"/><linearGradient id="linear-gradient-61" x1="769.35" y1="174.57" x2="769.35" y2="187.41" gradientTransform="matrix(1, 0, 0, -1, -21.14, 789.01)" xlink:href="#linear-gradient"/><linearGradient id="linear-gradient-62" x1="764.05" y1="162.68" x2="764.05" y2="168.3" gradientTransform="matrix(1, 0, 0, -1, -21.14, 789.01)" xlink:href="#linear-gradient"/><linearGradient id="linear-gradient-63" x1="726.48" y1="295.64" x2="726.48" y2="321.89" gradientTransform="matrix(1, 0, 0, -1, -21.14, 789.01)" xlink:href="#linear-gradient"/><linearGradient id="linear-gradient-64" x1="708.04" y1="287.81" x2="708.04" y2="313.27" gradientTransform="matrix(1, 0, 0, -1, -21.14, 789.01)" xlink:href="#linear-gradient"/><linearGradient id="linear-gradient-65" x1="748.86" y1="52.18" x2="748.86" y2="99.22" gradientTransform="matrix(1, 0, 0, -1, -21.14, 789.01)" xlink:href="#linear-gradient"/><linearGradient id="linear-gradient-66" x1="896.32" y1="82.53" x2="896.32" y2="85.23" xlink:href="#linear-gradient"/><linearGradient id="linear-gradient-67" x1="901.78" y1="54.35" x2="901.78" y2="57.05" xlink:href="#linear-gradient"/><linearGradient id="linear-gradient-68" x1="890.7" y1="104.24" x2="890.7" y2="165.37" gradientTransform="matrix(1, 0, 0, -1, -21.14, 789.01)" xlink:href="#linear-gradient"/><linearGradient id="linear-gradient-69" x1="885.82" y1="150.22" x2="885.82" y2="188.64" gradientTransform="matrix(1, 0, 0, -1, -21.14, 789.01)" xlink:href="#linear-gradient"/><linearGradient id="linear-gradient-70" x1="848.31" y1="71.59" x2="848.31" y2="85.46" gradientTransform="matrix(1, 0, 0, -1, -21.14, 789.01)" xlink:href="#linear-gradient"/><linearGradient id="linear-gradient-71" x1="864.82" y1="75.88" x2="864.82" y2="78.58" xlink:href="#linear-gradient"/><linearGradient id="linear-gradient-72" x1="846.2" y1="78.48" x2="846.2" y2="81.18" xlink:href="#linear-gradient"/><linearGradient id="linear-gradient-73" x1="881.2" y1="76.41" x2="881.2" y2="79.11" xlink:href="#linear-gradient"/><linearGradient id="linear-gradient-74" x1="886.07" y1="55.7" x2="886.07" y2="58.4" xlink:href="#linear-gradient"/><linearGradient id="linear-gradient-75" x1="889.39" y1="79.11" x2="889.39" y2="81.81" xlink:href="#linear-gradient"/><linearGradient id="linear-gradient-76" x1="893.73" y1="55.7" x2="893.73" y2="58.4" xlink:href="#linear-gradient"/><linearGradient id="linear-gradient-77" x1="872.65" y1="75.06" x2="872.65" y2="77.76" xlink:href="#linear-gradient"/><linearGradient id="linear-gradient-78" x1="876.22" y1="54.35" x2="876.22" y2="57.05" xlink:href="#linear-gradient"/><linearGradient id="linear-gradient-79" x1="856.53" y1="76.41" x2="856.53" y2="79.11" xlink:href="#linear-gradient"/><linearGradient id="linear-gradient-80" x1="806.52" y1="98.21" x2="806.52" y2="157.13" gradientTransform="matrix(1, 0, 0, -1, -21.14, 789.01)" xlink:href="#linear-gradient"/><linearGradient id="linear-gradient-81" x1="814.6" y1="99.26" x2="814.6" y2="237.38" gradientTransform="matrix(1, 0, 0, -1, -21.14, 789.01)" xlink:href="#linear-gradient"/><linearGradient id="linear-gradient-82" x1="850.2" y1="222.98" x2="850.2" y2="237.38" gradientTransform="matrix(1, 0, 0, -1, -21.14, 789.01)" xlink:href="#linear-gradient"/><linearGradient id="linear-gradient-83" x1="852.92" y1="225.01" x2="852.92" y2="259.37" gradientTransform="matrix(1, 0, 0, -1, -21.14, 789.01)" xlink:href="#linear-gradient"/><linearGradient id="linear-gradient-84" x1="749.19" y1="248.51" x2="749.19" y2="335.05" gradientTransform="matrix(1, 0, 0, -1, -21.14, 789.01)" xlink:href="#linear-gradient"/><linearGradient id="linear-gradient-85" x1="848.11" y1="244.96" x2="848.11" y2="337.39" gradientTransform="matrix(1, 0, 0, -1, -21.14, 789.01)" xlink:href="#linear-gradient"/><linearGradient id="linear-gradient-86" x1="803.67" y1="240.79" x2="803.67" y2="456.79" gradientTransform="matrix(1, 0, 0, -1, -21.14, 789.01)" xlink:href="#linear-gradient"/><linearGradient id="linear-gradient-87" x1="866.02" y1="398.61" x2="866.02" y2="412.54" gradientTransform="matrix(1, 0, 0, -1, -21.14, 789.01)" xlink:href="#linear-gradient"/><linearGradient id="linear-gradient-88" x1="767.19" y1="375.25" x2="767.19" y2="407.74" gradientTransform="matrix(1, 0, 0, -1, -21.14, 789.01)" xlink:href="#linear-gradient"/><linearGradient id="linear-gradient-89" x1="721.1" y1="348.32" x2="721.1" y2="395.66" gradientTransform="matrix(1, 0, 0, -1, -21.14, 789.01)" xlink:href="#linear-gradient"/><linearGradient id="linear-gradient-90" x1="762.71" y1="293.03" x2="762.71" y2="306.76" gradientTransform="matrix(1, 0, 0, -1, -21.14, 789.01)" xlink:href="#linear-gradient"/><linearGradient id="linear-gradient-91" x1="759.56" y1="334.59" x2="759.56" y2="359.78" gradientTransform="matrix(1, 0, 0, -1, -21.14, 789.01)" xlink:href="#linear-gradient"/><linearGradient id="linear-gradient-92" x1="850.28" y1="240.82" x2="850.28" y2="277.11" gradientTransform="matrix(1, 0, 0, -1, -21.14, 789.01)" xlink:href="#linear-gradient"/><linearGradient id="linear-gradient-93" x1="885.6" y1="265.77" x2="885.6" y2="339.9" gradientTransform="matrix(1, 0, 0, -1, -21.14, 789.01)" xlink:href="#linear-gradient"/><linearGradient id="linear-gradient-94" x1="811.64" y1="301.88" x2="811.64" y2="328.73" gradientTransform="matrix(1, 0, 0, -1, -21.14, 789.01)" xlink:href="#linear-gradient"/><linearGradient id="linear-gradient-95" x1="749.19" y1="250.52" x2="749.19" y2="316.9" gradientTransform="matrix(1, 0, 0, -1, -21.14, 789.01)" xlink:href="#linear-gradient"/><linearGradient id="linear-gradient-96" x1="798.44" y1="367.27" x2="798.44" y2="426.78" gradientTransform="matrix(1, 0, 0, -1, -21.14, 789.01)" xlink:href="#linear-gradient"/><linearGradient id="linear-gradient-97" x1="778.85" y1="186.63" x2="778.85" y2="244.93" gradientTransform="matrix(1, 0, 0, -1, -21.14, 789.01)" xlink:href="#linear-gradient"/><linearGradient id="linear-gradient-98" x1="777.83" y1="188.64" x2="777.83" y2="246.94" gradientTransform="matrix(1, 0, 0, -1, -21.14, 789.01)" xlink:href="#linear-gradient"/><linearGradient id="linear-gradient-99" x1="704.24" y1="200.34" x2="704.24" y2="234.01" gradientTransform="matrix(1, 0, 0, -1, -21.14, 789.01)" xlink:href="#linear-gradient"/><linearGradient id="linear-gradient-100" x1="783.35" y1="253.01" x2="783.35" y2="273.4" gradientTransform="matrix(1, 0, 0, -1, -21.14, 789.01)" xlink:href="#linear-gradient"/><linearGradient id="linear-gradient-101" x1="812.37" y1="43.76" x2="812.37" y2="57.04" gradientTransform="matrix(1, 0, 0, -1, -21.14, 789.01)" xlink:href="#linear-gradient"/><linearGradient id="linear-gradient-102" x1="875.13" y1="14.29" x2="875.13" y2="38.59" gradientTransform="matrix(1, 0, 0, -1, -21.14, 789.01)" xlink:href="#linear-gradient"/></defs><title>404-page</title><g id="Layer_2" data-name="Layer 2"><g id="_96adce4c-eb60-42ce-a2b3-116be577c7f4" data-name="96adce4c-eb60-42ce-a2b3-116be577c7f4"><ellipse class="cls-1" cx="788.83" cy="768.46" rx="195.65" ry="26.54"/><ellipse class="cls-1" cx="1029.07" cy="710.92" rx="82.47" ry="11.19"/><ellipse class="cls-1" cx="1053.3" cy="821.14" rx="35.78" ry="4.85"/><ellipse class="cls-1" cx="428.54" cy="755.66" rx="82.47" ry="11.19"/><ellipse class="cls-1" cx="285.38" cy="706" rx="82.47" ry="11.19"/><path class="cls-1" d="M713,88.34c-49.68,31.15-114.14,29.13-170.58,12.93S434.1,56.21,379.08,35.71A580.63,580.63,0,0,0,235.57,2.2C165.46-5,87.16,3.77,38.3,54.12c-54.43,56.07-50.22,157.2,8.62,208.68,29.93,26.18,69.12,39,103.3,59.47s65.82,54.39,62.91,93.85c-2.7,36.52-34,64.55-66.44,82.14-25.06,13.59-55.93,28.43-58.95,56.58-2.92,27.24,23,48.59,47.81,60.72,80.84,39.6,180.43,39.22,261-1,28.73-14.35,55.14-33.43,85.27-44.62,79.11-29.36,166.28.2,250.05,11A556.32,556.32,0,0,0,944.5,567.1c41.48-11,83.12-27.75,112.26-59,21-22.53,34.11-51.05,46.4-79.21q19.68-45,37.8-90.73c7.25-18.28,14.4-36.92,16.27-56.48,3.4-35.44-10.91-70.48-30.4-100.39-46.26-71-124.17-121-208.51-133.65S744.63,59.73,679.19,114"/><polygon class="cls-2" points="109.5 8.66 109.5 29.29 109.5 540.36 726.9 540.36 726.9 29.29 726.9 8.66 109.5 8.66"/><rect class="cls-3" x="113.95" y="13.32" width="608.5" height="20.27"/><rect class="cls-4" x="113.95" y="13.32" width="608.5" height="20.27"/><rect class="cls-3" x="113.95" y="33.59" width="608.5" height="502.1"/><ellipse class="cls-3" cx="127.07" cy="23.46" rx="4.56" ry="3.44"/><ellipse class="cls-3" cx="139.43" cy="23.46" rx="4.56" ry="3.44"/><ellipse class="cls-3" cx="151.78" cy="23.46" rx="4.56" ry="3.44"/><g class="cls-5"><rect class="cls-6" x="257.93" y="64.55" width="320.55" height="9.46"/></g><rect class="cls-6" x="535.89" y="64.55" width="42.59" height="9.46"/><path class="cls-7" d="M540.35,414.84Z"/><path class="cls-8" d="M524.28,468.14l-4.68,3.16c0-2.21,8.23-11,8.23-11-2.13-1.2-9.67,4.68-9.67,4.68.89-3.85,7.55-8.51,7.55-8.51-.58-.3-5.72,2.3-5.72,2.3,1.68-3.55,8.61-8.69,8.61-8.69-.86-.55-5.93,1.64-6.17,1.74.27-.19,8.71-6.11,8-6.29s-7.14,1.15-7.14,1.15c-.5-2.26,10-12.91,10-12.91s1.31-1.85.84-1.36-5.34,2.18-5.34,2.18c.07-3.33,10.22-8.49,10.22-8.49l-4.62-.18,3-3.27c-.14.11-4.9,3.76-5,2.69s4.48-5.37,5.46-6,4-.12,4-.12-1.32-3.81-1.57-4.36c.73.6,11.09,5,11.09,5l.9.18c2.42.47,9,1.8,10,2.5s6,1.65,8.88,2.21l2,.38-7.28,46.11h-2c-1.19,0-2.37-.1-3.55-.2q-2.79-.26-5.55-.76c-3.7-.69-8.56-1.61-12.31-2.34-2.32-.45-4.21-.84-5.14-1.05-3.71-.87-8.34,2-9.4,2s-7.44,5.31-7.44,5.31C520.53,473.15,524.28,468.14,524.28,468.14Z"/><g class="cls-9"><path class="cls-10" d="M524.24,468.06c.08,0,7.28-2.95,9.68-3.89s31.19,1.13,32.41,1.22v.18c-.3,0-29.94-2.16-32.33-1.22s-9.6,3.85-9.67,3.88Z"/></g><path class="cls-7" d="M540.35,414.84Z"/><g class="cls-9"><path class="cls-11" d="M532.37,425.27a56.72,56.72,0,0,1,6.12-4.32c1.64-.91,4.85-.26,7.19.21a16.39,16.39,0,0,0,2.08.34c1.43,0,9.26,2.22,9.59,2.32.08,0,8.56,2,9.63,1.94a32.57,32.57,0,0,1,5,.91v.19a32.59,32.59,0,0,0-5-.92c-1.1.07-9.34-1.86-9.69-1.94-.08,0-8.13-2.31-9.54-2.32a13.84,13.84,0,0,1-2.11-.34c-2.19-.44-5.49-1.1-7.07-.23a58.77,58.77,0,0,0-6.1,4.3Z"/></g><g class="cls-9"><path class="cls-12" d="M534.06,425.79c.73-.81,9.23-1.1,10-.8s10.51,1.25,11,1.23c.16,0,12.8,2.44,16.67,3.2v.18c-5.62-1.1-16.34-3.17-16.63-3.19-.05,0-10.19-.9-11.09-1.25s-9.22.14-9.78.75Z"/></g><g class="cls-9"><path class="cls-13" d="M528.67,434.54c2.61-4.44,17.34-5.76,17.48-5.77,1.57-.13,24,4.12,24.92,4.3v.18c-.23,0-23.32-4.43-24.86-4.29-4.1.35-15.21,2.05-17.33,5.68Z"/></g><g class="cls-9"><path class="cls-14" d="M527.67,439.69c4.16-4.67,17.36-4.35,17.49-4.34,1,0,23.44,3.36,24.39,3.5V439c-.23,0-23.39-3.45-24.37-3.49-.13,0-13.23-.33-17.33,4.27Z"/></g><g class="cls-9"><path class="cls-15" d="M523.74,444.86c1.56-2.91,5.94-5,13-6.19a72.14,72.14,0,0,1,10.37-.93L570,440.35v.19l-22.84-2.61c-.19,0-19.79.15-23.29,7.16l-.17-.08Z"/></g><g class="cls-9"><path class="cls-16" d="M523.18,446.62c2.19-2.4,10.76-4.3,14.86-4.79,3.85-.46,29.36,3.57,30.45,3.74v.18c-.27,0-26.57-4.19-30.4-3.74s-12.61,2.4-14.74,4.73Z"/></g><g class="cls-9"><path class="cls-17" d="M528.19,447.51l9.67-1.6a25.83,25.83,0,0,1,7.5-.14l10.72,1.38,11.79,2.23v.18l-11.8-2.23L545.34,446a25.84,25.84,0,0,0-7.45.13l-9.67,1.61Z"/></g><g class="cls-9"><path class="cls-18" d="M520.1,458.29c2-3.72,10.9-5.57,15.78-6.59,1-.21,1.85-.38,2.33-.52,2.76-.77,28.52,1.82,29.61,1.93v.19c-.27,0-26.82-2.7-29.54-1.94-.49.14-1.31.31-2.34.52-4.67,1-14.4,3-15.84,6.92l-.18-.06A4.22,4.22,0,0,1,520.1,458.29Z"/></g><g class="cls-9"><path class="cls-19" d="M525.48,456.53s4.92-1.55,6-2.06,13.85-.83,14.39-.85L567.74,455v.19l-21.87-1.38c-.12,0-13.21.32-14.31.82s-5.86,2-6.06,2.08Z"/></g><g class="cls-9"><path class="cls-20" d="M518.08,464.93c4.81-6.76,23.13-9.38,24.77-9.26l24.63,1.58v.18c-.23,0-23-1.46-24.62-1.58S523,458.34,518.26,465Z"/></g><g class="cls-9"><path class="cls-21" d="M520.08,469.88c4.34-8.1,23-9.92,24.71-9.85l21.78,1v.18l-21.78-1c-1.81-.08-22.3,1.93-25.09,11.1l-.18-.05A8.31,8.31,0,0,1,520.08,469.88Z"/></g><g class="cls-9"><path class="cls-22" d="M563.87,471.22l7.37-46.52,2,.38-7.37,46.16C565.18,471.24,564.5,471.24,563.87,471.22Z"/></g><path class="cls-23" d="M564.26,472.23,572,423.75l9.43,3,6.9,2.2s4.82-1,6.36,2.51-3.37,13.76-1,16,22.4,4,22.4,4,29.1,7.75,32.14,8.21,19.69,10.17,19.69,10.17c.91,2.29-10.27,2.39-12.77,3.07s-26.36-3.81-27.91-5.18-23.75-7.36-23.75-7.36c-7.15-3.7-11.74-2.15-11.74-2.15a55,55,0,0,1-3.45,14,3.8,3.8,0,0,1-4,2.17l-10.78-.85Z"/><g class="cls-9"><path class="cls-24" d="M564.26,472.23,572,423.75l9.43,3c-1.51,4.69-10.51,34.25-7.91,46.76Z"/></g><path class="cls-25" d="M524.28,468.14l-4.68,3.16c0-2.21,8.23-11,8.23-11-2.13-1.2-9.67,4.68-9.67,4.68.89-3.85,7.55-8.51,7.55-8.51-.58-.3-5.72,2.3-5.72,2.3,1.68-3.55,8.61-8.69,8.61-8.69-.86-.55-5.93,1.64-6.17,1.74.27-.19,8.71-6.11,8-6.29s-7.14,1.15-7.14,1.15c-.5-2.26,10-12.91,10-12.91s1.31-1.85.84-1.36-5.34,2.18-5.34,2.18c.07-3.33,10.22-8.49,10.22-8.49l-4.62-.18,3-3.27c-.14.11-4.9,3.76-5,2.69s4.48-5.37,5.46-6,4-.12,4-.12-1.32-3.81-1.57-4.36c.73.6,11.09,5,11.09,5l.9.17c-1,.76-1.92,1.45-2.53,2a7.42,7.42,0,0,0-2.21,2.7,5.5,5.5,0,0,0,.69,4.5c.77,1.37,1.83,2.56,2.59,3.94a2.62,2.62,0,0,1,.42,1.94,3.32,3.32,0,0,1-1.31,1.51,25.4,25.4,0,0,0-8.32,11.5,3.19,3.19,0,0,0-.25,1.4,4.77,4.77,0,0,0,.82,1.75,6.3,6.3,0,0,1-.81,7.27c-.82.9-2,1.69-2.06,2.9a4,4,0,0,0,.6,1.92c.82,1.53,1.64,3.06,2.44,4.61-2.32-.45-4.21-.84-5.14-1.05-3.71-.87-8.34,2-9.4,2s-7.44,5.3-7.44,5.3C520.53,473.15,524.28,468.14,524.28,468.14Z"/><path class="cls-26" d="M681.1,740.41l4.43,17.75s99.48,32.16,131.73,2-3.55-88.78-3.55-88.78l-21.84-22.44-57.61-6.7H713.87Z"/><g class="cls-27"><path class="cls-26" d="M681.1,740.41l4.43,17.75s99.48,32.16,131.73,2-3.55-88.78-3.55-88.78l-21.84-22.44-57.61-6.7H713.87Z"/></g><path class="cls-28" d="M922.8,611.08,913.24,622l-33.06,59.14-11.25,20.77s-8.5,10.58-7.66,15,3.23,37.27-25.4,39.94-90.69-64.33-90.69-64.33l2.53-1.7,55.43-37.49L823,631.91l5.32-5.72s25.92-34.84,25.23-40.2,25.91-37.52,41.25-36.52,26.93,1,32.38,20.44S922.8,611.08,922.8,611.08Z"/><rect class="cls-29" x="724.48" y="384.86" width="105.08" height="78.14"/><g class="cls-9"><rect class="cls-29" x="724.48" y="384.86" width="105.08" height="78.14"/></g><path class="cls-30" d="M695.76,547.62c0,1.43-.13,3.39-.34,5.6-.79,8.6-2.73,21-2.73,21s-4.09,21.83-3.07,23.61-1,16.33-2.39,19.53-9.54,0-9.54,0l-27-71.22-1.49-3.93-.59-1.55.62-2.38,2.19-8.63S695.76,540.68,695.76,547.62Z"/><path class="cls-31" d="M819.16,477.19v11.26L811,527.78l-17.72,23.36-39.2,5-37.5-14.47s-24.88-39.46,4.09-61.67a54.61,54.61,0,0,0,16.6-20.75A66.45,66.45,0,0,0,743,432.58a60.62,60.62,0,0,0-.86-11.8s61.36-27.8,51.47,0a31,31,0,0,0-1.39,15,46.05,46.05,0,0,0,4.91,14.66C805,465.78,819.16,477.19,819.16,477.19Z"/><g class="cls-9"><path class="cls-32" d="M793.59,420.75a31,31,0,0,0-1.39,14.95A41.86,41.86,0,0,1,743,432.55a60.62,60.62,0,0,0-.86-11.8S803.48,393,793.59,420.75Z"/></g><ellipse class="cls-33" cx="769.73" cy="399.69" rx="41.25" ry="40.54"/><g class="cls-9"><path class="cls-34" d="M819.16,477.19v11.26L811,527.78l-17.72,23.36-39.2,5-37.5-14.47s-24.88-39.46,4.09-61.67a54.61,54.61,0,0,0,16.6-20.75c-22.66,85.24,25.63,80.82,25.63,80.82,44.18,0,35.29-81,34.22-89.71C805,465.78,819.16,477.19,819.16,477.19Z"/></g><g class="cls-9"><path class="cls-35" d="M856.66,515.27c-1.71,5.7-5.8,26.46-5.8,26.46s-1.15.45-3,1.28c-7,3.19-24.31,12-25.59,23a4.1,4.1,0,0,0-.06.49c-1,14.07-13.63,43.89-20.1,57.29s3.07,27.81,3.07,27.81l-13,3s-18,2.4-33.31-1.3-13.3,6-22.84,2.68-40.91-5.7-46-8.71-9.54-29.81-6.82-33.17,11.25-74,11.25-74S660,508.6,660.71,488.16s25.57-21.43,25.57-21.43,9.57-3.3,17.68-6.73c1.57-.66,3.1-1.34,4.48-2,6.73-3.17,21.88-1.79,28-1.06,1.6.2,2.58.34,2.58.34-.88,3-1.67,5.94-2.39,8.75-13.91,54.89,2.42,71.3,14.87,76.14a28,28,0,0,0,11.37,1.92c15.66,0,24.65-10.19,29.69-23.72,10-26.81,4.42-66.74,4.42-66.74s31.71,12.72,52.16,25.46S858.37,509.57,856.66,515.27Z"/></g><path class="cls-36" d="M856.66,513.26c-1.71,5.7-5.8,26.46-5.8,26.46s-1.15.45-3,1.28c-7,3.19-24.31,12-25.59,23a4.1,4.1,0,0,0-.06.49c-1,14.07-13.63,43.89-20.1,57.29s3.07,27.81,3.07,27.81l-13,3s-18,2.41-33.31-1.3-13.3,6-22.84,2.68-40.91-5.7-46-8.71-9.54-29.81-6.82-33.17,11.25-74,11.25-74-34.43-31.5-33.75-51.94,25.57-21.43,25.57-21.43,9.57-3.3,17.68-6.73c1.57-.66,3.1-1.34,4.48-2,6.73-3.17,21.88-1.79,28-1.06,1.6.2,2.58.34,2.58.34-.88,3-1.67,5.94-2.39,8.75-13.91,54.89,2.42,71.3,14.87,76.14a28,28,0,0,0,11.37,1.92c15.66,0,24.65-10.19,29.69-23.72,10-26.81,4.42-66.74,4.42-66.74s31.71,12.72,52.16,25.46S858.37,507.56,856.66,513.26Z"/><g class="cls-9"><path class="cls-37" d="M695.76,547.62v6l-.34-.42c-14.39-17.92-37.7-10-44.72-7.06-1.33.56-2.08.94-2.08.94s.4-2.3.59-4.87a25.78,25.78,0,0,0,0-3.93l2.19-8.63S695.76,540.68,695.76,547.62Z"/></g><path class="cls-38" d="M671.21,484.11l-8.88,11.4s-15,35.84-13.62,38.52-.09,11.06-.09,11.06,30.09-15.38,47.13,6.55V540.4s1.71-4.69,2.39-6,0-11.73,0-11.73Z"/><path class="cls-39" d="M687.23,617.46a4.93,4.93,0,0,1-.35,1.11c-4.35,9.71-36.91-4.47-36.91-4.47s-.27-1.34-.7-3.51c-1.72-8.73-5.81-31.06-3.62-35.35,2.72-5.36,3-22.11,3-22.11,9.12-16.08,4.52-48.58,4.52-48.58,4.09-7-2.38-13.4-2.38-13.4s-56.6-32.84-17.73-37.19,46.37,41.86,43.3,46.91,2.38,45.82,2.38,45.82l5.45,31.57S689.58,605.61,687.23,617.46Z"/><polygon class="cls-40" points="851.16 775.47 841.04 774.97 801.69 773.07 801.64 771.84 800.8 751.85 830.68 736.82 830.72 736.8 831.1 737.07 831.87 737.6 832.7 738.18 849.77 750.15 851.16 775.47"/><g class="cls-9"><polygon class="cls-41" points="832.8 738.07 832.7 738.18 801.64 771.84 800.8 751.85 830.68 736.82 831.1 737.07 832.8 738.07"/></g><g class="cls-9"><path class="cls-42" d="M686.87,618.57c-4.35,9.71-36.91-4.47-36.91-4.47s-.27-1.34-.7-3.51c4.34-1.79,9.87-2.16,17.17-.17C675.87,613,682.43,615.94,686.87,618.57Z"/></g><path class="cls-43" d="M685.53,758.16s-19.09-9.38-20.11-14.4-6.48-20.78-8.87-24.13-17-26.13-20.45-35.84S622.46,646.6,630,636.21s11.93-30.48,36.48-23.78,29.31,15.74,29.31,15.74l2.69,5.7s59.36,54.21,60.38,55.92,32.73,25.15,32.73,25.15l39.2,23.12-33.07,35.85s-41.93-16.08-43.29-22.78-12.88-12.73-12.88-12.73l-15.76-6Z"/><g class="cls-9"><path class="cls-44" d="M645.64,678.09s7.16,7,7.16,9.72,9.88,7.37,9.88,7.37,78.41,47.87,87.62,47.72l16.39,16.27,23.09-47-28.91-22.38-60.38-53.24s-11.21-7.37-17.35-8.38-37.5-15.07-40.22,12.06S645.64,678.09,645.64,678.09Z"/></g><g class="cls-9"><path class="cls-45" d="M643.6,680.1s7.16,7,7.16,9.72,9.87,7.37,9.87,7.37,78.42,47.87,87.62,47.72l16.39,16.27,23.1-47L758.87,691.8l-60.38-53.24s-11.21-7.37-17.34-8.38-37.5-15.07-40.23,12.06S643.6,680.1,643.6,680.1Z"/></g><path class="cls-46" d="M643.6,678.09s7.16,7,7.16,9.72,9.87,7.37,9.87,7.37,78.42,47.87,87.62,47.72l16.39,16.27,23.1-47-28.87-22.38-60.38-53.24s-11.21-7.37-17.34-8.38-37.55-15.07-40.28,12.06S643.6,678.09,643.6,678.09Z"/><path class="cls-46" d="M643.6,678.09s7.16,7,7.16,9.72,9.87,7.37,9.87,7.37,78.42,47.87,87.62,47.72l16.39,16.27,23.1-47-28.87-22.38-60.38-53.24s-11.21-7.37-17.34-8.38-37.55-15.07-40.28,12.06S643.6,678.09,643.6,678.09Z"/><g class="cls-9"><path class="cls-47" d="M651.1,698.53s20.6,33.56,31.77,36.54S651.1,698.53,651.1,698.53Z"/></g><polygon class="cls-48" points="811.32 707.66 808.22 724.86 805.38 740.65 804.16 747.44 777.32 739.07 780.06 724.35 780.21 723.53 782 713.94 811.32 707.66"/><g class="cls-9"><path class="cls-49" d="M805.38,740.65l-1.22,6.79-26.84-8.37,2.74-14.73c3.93-5,14.26-1,14.26-1,14.35-1.68,9.5,14.74,9.5,14.74A5.53,5.53,0,0,1,805.38,740.65Z"/></g><path class="cls-50" d="M808.25,796.36C801.1,790,775.18,787,766.66,787s-5.11-2.67-5.11-2.67l-5.64-4c-3.85-2.75-2.08-9.24-.58-13.08.71-1.79,1.35-3,1.35-3s2.14-15.75,4.27-20.45S778.64,732,778.64,732c-1.32-14.12,15.68-7.65,15.68-7.65,14.35-1.67,9.5,14.75,9.5,14.75,2.73,2,3.41,12.72,2.73,16.41s2.38,15.41,2.38,15.41,2.87,10.6,4.61,16.79c.34,1.19.63,2.23.85,3C815.75,795.35,808.25,796.36,808.25,796.36Z"/><g class="cls-9"><path class="cls-51" d="M808.25,796.36C801.1,790,775.18,787,766.66,787s-5.11-2.67-5.11-2.67l-5.64-4c-3.85-2.75-2.08-9.24-.58-13.08L763,774s-2.18,1.68,0,1.68h8.91s28.64,6,41.64,12.1c.34,1.19.63,2.23.85,3C815.75,795.35,808.25,796.36,808.25,796.36Z"/></g><g class="cls-9"><ellipse class="cls-52" cx="777.32" cy="738.15" rx="1.37" ry="1.35"/></g><g class="cls-9"><ellipse class="cls-53" cx="780.06" cy="748.79" rx="1.37" ry="1.35"/></g><g class="cls-9"><ellipse class="cls-54" cx="779.32" cy="744.84" rx="1.37" ry="1.35"/></g><g class="cls-9"><ellipse class="cls-55" cx="780.06" cy="754.1" rx="1.37" ry="1.35"/></g><g class="cls-9"><ellipse class="cls-56" cx="773.47" cy="759.6" rx="1.37" ry="1.35"/></g><g class="cls-9"><path class="cls-57" d="M851.16,775.46,841,775a3.6,3.6,0,0,1,0-1.9s7.42-7-4.86-20.32c0,0,.71-3.13,3.55-2.33,0,0-6.74-11.14-7.76-12.28a.92.92,0,0,1-.12-.54l.83.57,17.07,12Z"/></g><path class="cls-58" d="M938.22,750.15a21.21,21.21,0,0,1-2.63,11,21.88,21.88,0,0,1-4.79,6.08h-.09a75.23,75.23,0,0,1-31.51,5.59c-13.94-.53-31.6-.48-37.55,2.63,0,0-20.59,5.65-18.54-2.39,0,0,7.41-7-4.86-20.32,0,0,.71-3.13,3.55-2.33,0,0-6.74-11.14-7.76-12.28-.57-.62,1-5,2.44-8.82.43-1.12.86-2.19,1.24-3.11.67-1.63,1.16-2.77,1.16-2.77.23.13,1.43.84,3.19,1.77,3.31,1.72,8.62,4.16,13.44,4.89,7.41,1.14,13.81,3.52,25.57,0s16.87-8.37,32.85-2.55S937.87,739.4,938.22,750.15Z"/><g class="cls-9"><path class="cls-59" d="M938.22,750.15a21.21,21.21,0,0,1-2.63,11c-2.86-11.84-6.53-19.11-18.85-28.25-13.55-10-34.51.88-34.51.88s-17,.75-29.41.75a27.36,27.36,0,0,1-16.34-5.18,18.77,18.77,0,0,1-2.57-2.23l3.81-.88,4.35-1c3.31,1.72,8.62,4.16,13.44,4.89,7.41,1.14,13.81,3.52,25.57,0s16.87-8.37,32.85-2.55S937.87,739.4,938.22,750.15Z"/></g><g class="cls-9"><path class="cls-60" d="M865.18,574.9s-9.2,13.74-8.86,17.76-7.5,12.06-7.5,12.06-8.52,9-8.52,12.73-15.69,35.71-15.69,35.71-20.74,19.24-25.22,22.25-15.34,23.45-19.77,26.13-4.35,22-4.35,22l31.28-32.12s34.77,34.6,36.81,35.27,8.18-28.14,8.18-28.14,19.1-18,24.55-22.91,26.52-38.29,26.52-38.29,19.16-35.35,17.46-45.69S902.17,587.47,865.18,574.9Z"/></g><g class="cls-9"><path class="cls-61" d="M868.25,574.9s-9.21,13.74-8.86,17.76-7.5,12.06-7.5,12.06-8.53,9-8.53,12.73-15.68,35.71-15.68,35.71-20.81,19.24-25.22,22.25-15.34,23.45-19.78,26.13-4.34,22-4.34,22,35.93-23,49.34,29.28h0L840,735.26s4.44-9.24,6.48-8.57,8.18-28.14,8.18-28.14,19.09-18,24.55-22.91,26.52-38.29,26.52-38.29,19.19-35.35,17.45-45.69S901.49,584,868.25,574.9Z"/></g><g class="cls-9"><path class="cls-62" d="M811.32,707.66l-3.1,17.2c-10.56-7.19-22.13-3.89-28-1.33l1.79-9.59Z"/></g><path class="cls-63" d="M867.23,574.9s-9.21,13.74-8.87,17.76-7.5,12.06-7.5,12.06-8.52,9-8.52,12.73-15.68,35.71-15.68,35.71-20.79,19.24-25.23,22.25-15.34,23.45-19.77,26.13-4.34,22-4.34,22,35.93-23,49.34,29.28h0l12.27-17.56s4.43-9.24,6.48-8.57,8.18-28.14,8.18-28.14,19.09-18,24.54-22.91,26.53-38.29,26.53-38.29,19.21-35.35,17.45-45.69S904.72,550.45,867.23,574.9Z"/><g class="cls-9"><path class="cls-64" d="M708.71,608.41s50.56-18.78,79,6Z"/></g><g class="cls-9"><path class="cls-65" d="M713.92,620.71s40.47,6.79,55.81,5.45S713.92,620.71,713.92,620.71Z"/></g><g class="cls-9"><path class="cls-66" d="M702.23,467.12s-3.18,20.68,4.38,25.7S702.23,467.12,702.23,467.12Z"/></g><path class="cls-67" d="M681.1,475.74s10.58,16.75,11.6,25.46"/><g class="cls-9"><path class="cls-68" d="M710.07,689.79S748.25,718,745.18,731s-2.27,0-2.27,0Z"/></g><g class="cls-9"><ellipse class="cls-69" cx="896.32" cy="742.14" rx="1.37" ry="1.35"/></g><g class="cls-9"><ellipse class="cls-70" cx="901.78" cy="770.32" rx="1.37" ry="1.35"/></g><g class="cls-9"><path class="cls-71" d="M882.58,623.64s-24.79,23.63-24.68,35-1.37,26.13-1.37,26.13l8.29-30.1Z"/></g><g class="cls-9"><path class="cls-72" d="M884.7,600.37s-43.53,34.5-39.83,38.19S884.7,600.37,884.7,600.37Z"/></g><g class="cls-9"><path class="cls-73" d="M817.26,703.55s20.93,9.57,19.77,13.33S817.26,703.55,817.26,703.55Z"/></g><g class="cls-9"><ellipse class="cls-74" cx="864.82" cy="748.79" rx="1.37" ry="1.35"/></g><g class="cls-9"><ellipse class="cls-75" cx="846.2" cy="746.19" rx="1.37" ry="1.35"/></g><g class="cls-9"><ellipse class="cls-76" cx="881.2" cy="748.26" rx="1.37" ry="1.35"/></g><g class="cls-9"><ellipse class="cls-77" cx="886.07" cy="768.97" rx="1.37" ry="1.35"/></g><g class="cls-9"><ellipse class="cls-78" cx="889.39" cy="745.56" rx="1.37" ry="1.35"/></g><g class="cls-9"><ellipse class="cls-79" cx="893.73" cy="768.97" rx="1.37" ry="1.35"/></g><g class="cls-9"><ellipse class="cls-80" cx="872.65" cy="749.61" rx="1.37" ry="1.35"/></g><g class="cls-9"><ellipse class="cls-81" cx="876.22" cy="770.32" rx="1.37" ry="1.35"/></g><g class="cls-9"><ellipse class="cls-82" cx="856.53" cy="748.26" rx="1.37" ry="1.35"/></g><g class="cls-9"><path class="cls-83" d="M823,631.88c-.34,1.84-.47,3-.47,3s-19.09,29.82-32.39,33.84c0,0-30.14,21.83-42.47,22.08l55.43-37.49Z"/></g><path class="cls-84" d="M845.41,551.63l-2.12,10.22s-.12.68-.36,1.88c-1.59,8.28-8.19,41.29-13.55,48-6.13,7.71-7.83,22.11-7.83,22.11s-19.09,29.82-32.39,33.84c0,0-51.82,37.52-47.38,14.73s34.42-31.82,34.42-31.82,4.09-7.71,4.09-9.38,8.87-12.06,8.87-12.06,7.84-14.08,8.18-17.09,14-58.3,14-58.3l8.07-.51Z"/><g class="cls-9"><path class="cls-85" d="M845.41,551.63l-2.12,10.22s-.12.68-.36,1.88c-10.4,1.86-27.61,4.19-30-.22-1.1-2,1.88-5.86,6.48-10.23Z"/></g><path class="cls-86" d="M850.87,560.17S833.61,564,822.28,564h-1.65c-3.88-.15-6.82-.86-7.72-2.5-1.12-2,2-6,6.71-10.44,6.27-5.91,15.42-12.7,21.47-17,3.74-2.66,6.29-4.38,6.29-4.38l3.49,10s-.38,1.79-.79,4.33C849.19,549.55,848.21,558.56,850.87,560.17Z"/><g class="cls-9"><path class="cls-87" d="M744.67,514.93q5.07,12,10.37,23.92a14.9,14.9,0,0,1-3.66,1.29c-6.28,1.32-13.29-1.25-19.44-3.85-9.2-3.88-19.19-8.5-23.35-17.45-3.07-6.61-2.27-14.26-3.45-21.43-1-6.19-3.57-12.12-4-18.37-.55-7.1,1.58-14.06,2.8-21.08,1.57-.66,3.1-1.34,4.48-2,6.73-3.17,21.88-1.79,28-1.06a25.48,25.48,0,0,0-.35,4.36,25.12,25.12,0,0,0,.54,4.73c1.52,7.62,5.8,14.85,5.82,22.67,0,4.85-1.64,9.61-1.51,14.47S742.81,510.5,744.67,514.93Z"/></g><g class="cls-9"><path class="cls-88" d="M856.66,513.26c-1.71,5.7-5.8,26.46-5.8,26.46s-.38,1.79-.79,4.33c-.75-1-1.47-2-2.2-3-.47-.67-1-1.35-1.45-2a19.24,19.24,0,0,0-5.33-5,9.37,9.37,0,0,0-5-1.4c-2.86.08-5.43,1.65-8,2.89-10.33,5.05-24.68,4.57-31.46-4.61a22.41,22.41,0,0,1-4-12.57c10-26.81,4.42-66.74,4.42-66.74s31.71,12.72,52.16,25.46S858.37,507.56,856.66,513.26Z"/></g><path class="cls-89" d="M753,373.87c-1.27,3.85,0,8-.37,12.07-.9,9.49-10.58,16.11-12.77,25.39-1.69,7.11,1.29,14.48,1,21.77-.38,8.22-5,15.92-4.87,24.16.12,9.41,6.33,18,6.36,27.39,0,4.86-1.65,9.62-1.51,14.48s2,9.36,3.85,13.79q5.07,12,10.38,23.92c-7.12,3.64-15.73.55-23.11-2.56-9.21-3.89-19.19-8.49-23.35-17.45-3.06-6.62-2.26-14.26-3.45-21.43-1-6.19-3.57-12.12-4-18.38-.56-7.27,1.69-14.42,2.89-21.62a75,75,0,0,0-2.34-34.26c-2-6.43-4.85-12.63-6.12-19.24s-.71-14,3.54-19.24c4.62-5.72,12.46-7.77,18.27-12.32,6.17-4.84,9.7-12.23,11.94-19.67,1.9-6.33,3.6-13.67,9.49-16.83a15.6,15.6,0,0,1,7.77-1.6c9,.21,17.37,5.26,26.4,5.81,5.15.32,10.26-.85,15.38-1.43,12.69-1.46,26,.77,36.81,7.48s18.75,18.14,19.9,30.64c.68,7.5-1,15.07-.28,22.56a35.89,35.89,0,0,0,10,21.47c3.56,3.64,7.94,6.58,10.69,10.85a28.51,28.51,0,0,1,3.78,11.51c4.41,30.65-12.89,61-10,91.86.46,4.93,2,10.56,6.63,12.54-2.3,3.5-7.85,3.32-11.33,1s-5.58-6.18-8.12-9.5-6.13-6.47-10.36-6.35c-2.86.08-5.43,1.64-8,2.9-10.33,5-24.68,4.55-31.47-4.62-5.12-6.92-4.44-16.36-3.08-24.81s3.13-17.47-.38-25.31c-2.62-5.87-8.15-11.13-7.21-17.47.71-4.85,5-8.27,8.15-12.07,6-7.26,8.23-17,8-26.32s-2.63-18.5-5-27.54c-2-7.35-4-14.94-8.93-20.81a19.68,19.68,0,0,0-19.3-6.93c-3,.53-5.84-.76-9,.11A9.87,9.87,0,0,0,753,373.87Z"/><g class="cls-9"><path class="cls-90" d="M844.63,390.4c.19-4.64.7-9.3.49-13.93C844.93,381.11,844.41,385.77,844.63,390.4Z"/><path class="cls-91" d="M739.49,413.76a19.85,19.85,0,0,1,.4-2.43c2.2-9.28,11.87-15.9,12.77-25.39a28,28,0,0,0-.06-4.67c-1.1,9.3-10.54,15.87-12.71,25A24.16,24.16,0,0,0,739.49,413.76Z"/><path class="cls-92" d="M704.93,440.69a74.66,74.66,0,0,0-3.29-24.58c-2-6.43-4.85-12.62-6.12-19.23a35.2,35.2,0,0,1-.48-3.53,31.42,31.42,0,0,0,.48,8.55c1.27,6.61,4.14,12.81,6.12,19.24A75,75,0,0,1,704.93,440.69Z"/><path class="cls-93" d="M741,496c.38-3.78,1.38-7.52,1.37-11.33a19.33,19.33,0,0,0-.15-2.4c-.39,4-1.47,7.87-1.36,11.85C740.87,494.73,740.87,495.36,741,496Z"/><path class="cls-94" d="M736.12,454.42c.76-7.18,4.38-14.05,4.72-21.32a27.79,27.79,0,0,0-.09-3.87c-.72,7.8-4.88,15.15-4.78,23A21.94,21.94,0,0,0,736.12,454.42Z"/><path class="cls-95" d="M862.49,542.88a10,10,0,0,1-8-1.42c-3.48-2.36-5.58-6.17-8.12-9.5s-6.13-6.46-10.36-6.34c-2.86.08-5.43,1.64-8,2.89-10.34,5-24.69,4.56-31.48-4.61a22.19,22.19,0,0,1-4-12c-.34,6.11.4,12.19,4,17,6.79,9.17,21.14,9.66,31.48,4.62,2.56-1.26,5.13-2.82,8-2.9,4.23-.12,7.82,3,10.36,6.35s4.64,7.14,8.12,9.5,9,2.54,11.33-1A8.53,8.53,0,0,1,862.49,542.88Z"/><path class="cls-96" d="M859,523.24c.74-24.83,11.73-49.42,11-74.13C869.2,473.8,858.21,498.39,859,523.24Z"/><path class="cls-97" d="M795.1,487.13a28,28,0,0,0-2-13.36c-2.06-4.59-5.88-8.82-7-13.49a9.81,9.81,0,0,0-.22,1.05c-.93,6.34,4.59,11.6,7.22,17.47A24.26,24.26,0,0,1,795.1,487.13Z"/><path class="cls-98" d="M731.94,529.25c-9.2-3.88-19.19-8.49-23.35-17.45-3.06-6.61-2.26-14.25-3.45-21.43-1-6.15-3.53-12-4-18.26a33.53,33.53,0,0,0,0,4.91c.48,6.26,3,12.19,4,18.38,1.19,7.17.39,14.81,3.45,21.43,4.16,9,14.15,13.56,23.35,17.45,7.38,3.11,16,6.2,23.11,2.56q-.94-2.13-1.87-4.25C746.45,534.91,738.68,532.1,731.94,529.25Z"/><path class="cls-99" d="M788.14,374.59c4.9,5.87,7,13.46,8.93,20.81,2.3,8.66,4.6,17.41,5,26.34.06-1.28.09-2.55.06-3.82-.2-9.35-2.62-18.5-5-27.55-2-7.34-4-14.93-8.93-20.8a19.68,19.68,0,0,0-19.3-6.94c-3,.54-5.84-.75-9,.12a9.89,9.89,0,0,0-6.84,6.1,18.46,18.46,0,0,0-.45,7.06,11.35,11.35,0,0,1,.45-2,9.91,9.91,0,0,1,6.84-6.1c3.13-.87,6,.42,9-.11A19.68,19.68,0,0,1,788.14,374.59Z"/></g><g class="cls-9"><path class="cls-100" d="M818.28,544.08s15.88,41.55-20.94,58.3c0,0-66-7.33-86.24-2s-20.88-39.54-11.63-42.22S818.28,544.08,818.28,544.08Z"/></g><path class="cls-101" d="M817.26,542.07s15.88,41.55-20.94,58.3c0,0-66-7.33-86.25-2s-20.87-39.54-11.63-42.22S817.26,542.07,817.26,542.07Z"/><g class="cls-9"><path class="cls-102" d="M680.15,555l5.78,33.67S687.38,563.26,680.15,555Z"/></g><g class="cls-9"><path class="cls-103" d="M762.87,515.61s-1.31,15.07-1.93,19.76S765.24,517,762.87,515.61Z"/></g><path class="cls-104" d="M778.64,732s14,24.36,25.18,7.1"/><path class="cls-105" d="M841.8,750.42s34.07,17.41,21.65,24.3"/><path class="cls-106" d="M545.44,416.77Z"/><path class="cls-107" d="M529.73,469.8l-4.58,3.14c0-2.2,8.05-10.94,8.05-10.94-2.09-1.2-9.46,4.65-9.46,4.65.87-3.83,7.39-8.46,7.39-8.46-.58-.3-5.6,2.28-5.6,2.28,1.65-3.52,8.42-8.65,8.42-8.65-.84-.54-5.8,1.64-6,1.74.26-.19,8.51-6.08,7.78-6.26s-7,1.14-7,1.14c-.49-2.24,9.79-12.84,9.79-12.84s1.28-1.84.82-1.36-5.23,2.18-5.23,2.18c.07-3.32,10-8.46,10-8.46l-4.52-.17,3-3.25c-.14.1-4.8,3.73-4.86,2.67s4.38-5.34,5.34-6,3.94-.13,3.94-.13-1.28-3.79-1.53-4.33c.71.59,10.84,4.94,10.84,4.94l.88.17c2.37.48,8.76,1.8,9.76,2.49s5.83,1.65,8.68,2.21l2,.38-7.2,45.92h-2c-1.16,0-2.32-.1-3.48-.2-1.81-.16-3.62-.42-5.42-.76-3.62-.69-8.37-1.6-12-2.32-2.27-.45-4.12-.84-5-1.05-3.63-.86-8.16,2-9.2,2s-7.27,5.28-7.27,5.28C526.06,474.78,529.73,469.8,529.73,469.8Z"/><path class="cls-108" d="M529.69,469.71c.07,0,7.11-2.93,9.47-3.86s30.49,1.12,31.69,1.2v.19c-.29,0-29.27-2.15-31.6-1.22s-9.4,3.84-9.47,3.86Z"/><path class="cls-109" d="M545.44,416.77Z"/><path class="cls-108" d="M537.63,427.14a59,59,0,0,1,6-4.3c1.61-.9,4.74-.26,7,.21a15.19,15.19,0,0,0,2,.34c1.41,0,9.06,2.21,9.38,2.31.08,0,8.37,2,9.42,1.93a30.68,30.68,0,0,1,4.94.91v.18a32.4,32.4,0,0,0-4.89-.91c-1.08.06-9.13-1.85-9.47-1.93-.09,0-8-2.3-9.34-2.31a13.21,13.21,0,0,1-2.06-.34c-2.14-.43-5.36-1.09-6.91-.23a58.83,58.83,0,0,0-6,4.28Z"/><path class="cls-108" d="M539.29,427.66c.71-.8,9-1.09,9.77-.8s10.27,1.24,10.77,1.23c.16,0,12.52,2.43,16.3,3.18v.18c-5.51-1.09-16-3.16-16.27-3.17-.05,0-10-.9-10.84-1.25s-9,.14-9.56.75Z"/><path class="cls-108" d="M534,436.37c2.56-4.43,17-5.73,17.1-5.74,1.53-.14,23.42,4.09,24.36,4.27v.18c-.23,0-22.8-4.4-24.31-4.27-4,.35-14.87,2.05-17,5.65Z"/><path class="cls-108" d="M533.05,441.49c4.06-4.65,17-4.32,17.09-4.32,1,0,22.92,3.34,23.86,3.48v.18c-.23,0-22.88-3.43-23.83-3.47-.13,0-12.94-.33-16.95,4.25Z"/><path class="cls-108" d="M529.2,446.64c1.53-2.9,5.81-5,12.74-6.16a69,69,0,0,1,10.14-.93l22.35,2.6v.18l-22.34-2.59c-.18,0-19.35.15-22.77,7.12l-.17-.08A1.3,1.3,0,0,1,529.2,446.64Z"/><path class="cls-108" d="M528.65,448.38c2.14-2.38,10.52-4.28,14.53-4.76,3.77-.46,28.71,3.55,29.77,3.72v.18c-.25,0-26-4.17-29.72-3.72s-12.33,2.39-14.41,4.7Z"/><path class="cls-108" d="M533.55,449.27l9.45-1.59a24.74,24.74,0,0,1,7.34-.14l10.53,1.37,11.54,2.22v.18l-11.53-2.22-10.48-1.36a24.41,24.41,0,0,0-7.29.13l-9.45,1.59Z"/><path class="cls-108" d="M525.64,460c2-3.7,10.66-5.54,15.43-6.55,1-.21,1.81-.38,2.28-.52,2.69-.77,27.88,1.81,28.95,1.92V455c-.26,0-26.22-2.69-28.88-1.93-.48.14-1.28.31-2.29.52-4.57,1-14.08,3-15.49,6.89l-.18-.07A4.22,4.22,0,0,1,525.64,460Z"/><path class="cls-108" d="M530.87,458.24s4.81-1.54,5.9-2.05,13.55-.82,14.08-.84l21.34,1.33v.19l-21.32-1.33c-.12,0-12.92.32-14,.82s-5.73,2-5.93,2.06Z"/><path class="cls-108" d="M523.67,466.6c4.69-6.72,22.61-9.33,24.22-9.22L572,459v.18l-24.09-1.57c-1.59-.12-19.39,2.47-24,9.13Z"/><path class="cls-108" d="M525.62,471.53c4.24-8.06,22.47-9.88,24.16-9.8l21.3,1v.18l-21.3-1c-1.77-.09-21.8,1.91-24.53,11h-.18A7.49,7.49,0,0,1,525.62,471.53Z"/><path class="cls-108" d="M568.39,472.86l7.21-46.28,2,.38-7.2,45.92C569.72,472.88,569.05,472.88,568.39,472.86Z"/><path class="cls-110" d="M568.87,473.87l7.52-48.24,9.22,3,6.74,2.19s4.72-1,6.22,2.5-3.29,13.69-1,15.89,21.9,4,21.9,4,28.4,7.7,31.4,8.15,19.23,10.12,19.23,10.12c.89,2.28-10,2.39-12.49,3.06s-25.77-3.79-27.29-5.15-23.22-7.33-23.22-7.33c-7-3.68-11.48-2.13-11.48-2.13a54.86,54.86,0,0,1-3.37,13.89,3.71,3.71,0,0,1-3.91,2.17l-10.47-.86Z"/><path class="cls-108" d="M568.87,473.87l7.52-48.24,9.22,3c-1.44,4.65-10.32,34-7.73,46.5Z"/><path class="cls-6" d="M529.73,469.8l-4.58,3.14c0-2.2,8.05-10.94,8.05-10.94-2.08-1.2-9.46,4.65-9.46,4.65.87-3.83,7.39-8.46,7.39-8.46-.58-.31-5.6,2.28-5.6,2.28,1.65-3.53,8.42-8.65,8.42-8.65-.84-.54-5.8,1.64-6,1.74.26-.19,8.51-6.08,7.78-6.26s-7,1.14-7,1.14c-.49-2.25,9.79-12.85,9.79-12.85s1.28-1.83.82-1.35-5.23,2.17-5.23,2.17c.07-3.31,10-8.45,10-8.45l-4.51-.17,3-3.25c-.14.1-4.8,3.73-4.86,2.67s4.38-5.34,5.34-6,3.94-.13,3.94-.13-1.28-3.79-1.53-4.33c.71.59,10.84,4.94,10.84,4.94l.88.17c-.93.76-1.87,1.44-2.47,2a7.44,7.44,0,0,0-2.16,2.69,5.57,5.57,0,0,0,.67,4.48c.76,1.36,1.79,2.55,2.54,3.92a2.64,2.64,0,0,1,.41,1.93,3.27,3.27,0,0,1-1.29,1.51,25.17,25.17,0,0,0-8.13,11.44,3.3,3.3,0,0,0-.25,1.39,4.86,4.86,0,0,0,.81,1.74,6.39,6.39,0,0,1-.79,7.24c-.81.89-1.94,1.68-2,2.87a3.82,3.82,0,0,0,.58,1.92c.8,1.52,1.59,3.05,2.39,4.59-2.27-.46-4.12-.84-5-1.05-3.63-.86-8.16,2-9.19,2s-7.28,5.28-7.28,5.28C526.06,474.78,529.73,469.8,529.73,469.8Z"/><path class="cls-111" d="M683.06,740.69l4.34,17.66s97.27,32,128.8,2S812.73,672,812.73,672L791.4,649.67,735.06,643h-20Z"/><path class="cls-112" d="M683.06,740.69l4.34,17.66s97.27,32,128.8,2S812.73,672,812.73,672L791.4,649.67,735.06,643h-20Z"/><path class="cls-111" d="M919.4,612l-9.34,10.83-32.33,58.84-11,20.67s-8.31,10.52-7.49,14.92S862.4,754.34,834.4,757s-88.67-64-88.67-64l2.47-1.7L802.4,654l19.47-21.29,5.2-5.69s25.34-34.66,24.67-40,25.33-37.33,40.33-36.33,26.34,1,31.67,20.33S919.4,612,919.4,612Z"/><rect class="cls-113" x="725.48" y="386.94" width="102.75" height="77.75"/><rect class="cls-108" x="725.48" y="386.94" width="102.75" height="77.75"/><path class="cls-114" d="M697.4,548.88c0,1.42-.13,3.37-.33,5.57-.77,8.55-2.67,20.91-2.67,20.91s-4,21.72-3,23.49-1,16.25-2.34,19.43-9.33,0-9.33,0l-26.39-70.86-1.47-3.91L651.3,542l.6-2.37,2.15-8.58S697.4,542,697.4,548.88Z"/><path class="cls-114" d="M818.06,478.8V490l-8,39.14-17.33,23.24-38.33,5L717.73,543s-24.33-39.27,4-61.4A54.17,54.17,0,0,0,738,461a67,67,0,0,0,5.61-26.53,60.77,60.77,0,0,0-.84-11.74s60-27.66,50.33,0a31.43,31.43,0,0,0-1.36,14.87,47.06,47.06,0,0,0,4.8,14.59C804.25,467.45,818.06,478.8,818.06,478.8Z"/><path class="cls-108" d="M793.06,422.65a31.43,31.43,0,0,0-1.36,14.87,40.36,40.36,0,0,1-48.13-3.13,60.77,60.77,0,0,0-.84-11.74S802.73,395,793.06,422.65Z"/><circle class="cls-114" cx="769.73" cy="401.69" r="40.33"/><path class="cls-108" d="M818.06,478.8V490l-8,39.14-17.33,23.24-38.33,5L717.73,543s-24.33-39.27,4-61.4A54.17,54.17,0,0,0,738,461C715.8,545.79,763,541.39,763,541.39c43.2,0,34.51-80.63,33.46-89.25C804.25,467.45,818.06,478.8,818.06,478.8Z"/><path class="cls-108" d="M854.73,516.69c-1.67,5.67-5.67,26.33-5.67,26.33s-1.12.44-2.92,1.27c-6.9,3.17-23.77,12-25,22.91v.49c-1,14-13.33,43.67-19.66,57s3,27.67,3,27.67l-12.67,3s-17.67,2.33-32.67-1.34-13,6-22.33,2.67-40-5.67-45-8.67-9.33-29.66-6.67-33,11-73.66,11-73.66-33.66-31.34-33-51.67,25-21.33,25-21.33,9.36-3.28,17.29-6.69q2.31-1,4.38-2c6.58-3.16,21.4-1.78,27.33-1.06,1.57.2,2.52.34,2.52.34-.86,3-1.63,5.91-2.33,8.71-13.6,54.61,2.36,70.94,14.54,75.75a26.91,26.91,0,0,0,11.25,1.93c15.31,0,24.11-10.13,29-23.6,9.75-26.67,4.33-66.4,4.33-66.4s31,12.66,51,25.33S856.4,511,854.73,516.69Z"/><path class="cls-6" d="M854.73,514.69c-1.67,5.67-5.67,26.33-5.67,26.33s-1.12.44-2.92,1.27c-6.9,3.17-23.77,12-25,22.91v.49c-1,14-13.33,43.67-19.66,57s3,27.67,3,27.67l-12.67,3s-17.67,2.33-32.67-1.34-13,6-22.33,2.67-40-5.67-45-8.67-9.33-29.66-6.67-33,11-73.66,11-73.66-33.66-31.34-33-51.67,25-21.33,25-21.33,9.36-3.28,17.29-6.69q2.31-1,4.38-2c6.58-3.16,21.4-1.78,27.33-1.06,1.57.2,2.52.34,2.52.34-.86,3-1.63,5.91-2.33,8.71-13.6,54.61,2.36,70.94,14.54,75.75a26.91,26.91,0,0,0,11.25,1.93c15.31,0,24.11-10.13,29-23.6,9.75-26.67,4.33-66.4,4.33-66.4s31,12.66,51,25.33S856.4,509,854.73,514.69Z"/><path class="cls-108" d="M697.4,548.88v6l-.33-.42c-14.07-17.83-36.86-10-43.73-7-1.3.56-2,.94-2,.94s.39-2.29.57-4.85a25.52,25.52,0,0,0,0-3.91l2.15-8.58S697.4,542,697.4,548.88Z"/><path class="cls-6" d="M673.4,485.69,664.71,497s-14.65,35.66-13.31,38.32-.09,11-.09,11,29.42-15.29,46.09,6.52V541.69s1.66-4.67,2.33-6,0-11.67,0-11.67Z"/><path class="cls-114" d="M689.06,618.36a4.9,4.9,0,0,1-.34,1.11c-4.25,9.66-36.09-4.45-36.09-4.45s-.27-1.33-.69-3.49c-1.68-8.69-5.68-30.9-3.54-35.17,2.66-5.34,2.91-22,2.91-22,8.92-16,4.42-48.34,4.42-48.34,4-7-2.33-13.33-2.33-13.33s-55.34-32.67-17.34-37,45.34,41.65,42.34,46.67S680.73,548,680.73,548l5.33,31.41S691.36,606.57,689.06,618.36Z"/><polygon class="cls-114" points="849.35 775.57 839.46 775.08 800.98 773.19 800.93 771.96 800.11 752.07 829.33 737.12 829.37 737.1 829.74 737.37 830.49 737.9 831.3 738.47 847.99 750.38 849.35 775.57"/><polygon class="cls-108" points="831.4 738.36 831.3 738.47 800.93 771.96 800.11 752.07 829.33 737.12 829.74 737.37 831.4 738.36"/><path class="cls-108" d="M688.72,619.47c-4.25,9.66-36.09-4.45-36.09-4.45s-.27-1.33-.69-3.49c4.25-1.78,9.65-2.15,16.79-.17C678,613.93,684.37,616.85,688.72,619.47Z"/><path class="cls-111" d="M687.4,758.35S668.73,749,667.73,744s-6.33-20.67-8.67-24-16.66-26-20-35.67-13.33-37-6-47.33,11.67-30.33,35.67-23.67S697.4,629,697.4,629l2.63,5.67s58,53.94,59,55.63,32,25,32,25l38.34,23L797.06,774s-41-16-42.33-22.67-12.6-12.66-12.6-12.66l-15.4-6Z"/><path class="cls-108" d="M648.4,678.69s7,7,7,9.66,9.65,7.34,9.65,7.34,76.68,47.63,85.68,47.48l16,16.18,22.58-46.81L761,690.32l-59-53S691,630,685,629s-36.66-15-39.33,12S648.4,678.69,648.4,678.69Z"/><path class="cls-108" d="M646.4,680.69s7,7,7,9.66,9.65,7.34,9.65,7.34,76.68,47.63,85.68,47.48l16,16.18,22.58-46.81L759,692.32l-59-53S689,632,683,631s-36.66-15-39.33,12S646.4,680.69,646.4,680.69Z"/><path class="cls-111" d="M646.4,678.69s7,7,7,9.66,9.65,7.34,9.65,7.34,76.68,47.63,85.68,47.48l16,16.18,22.58-46.81L759,690.32l-59-53S689,630,683,629s-36.66-15-39.33,12S646.4,678.69,646.4,678.69Z"/><path class="cls-111" d="M646.4,678.69s7,7,7,9.66,9.65,7.34,9.65,7.34,76.68,47.63,85.68,47.48l16,16.18,22.58-46.81L759,690.32l-59-53S689,630,683,629s-36.66-15-39.33,12S646.4,678.69,646.4,678.69Z"/><path class="cls-108" d="M653.73,699s20.14,33.39,31.07,36.36S653.73,699,653.73,699Z"/><polygon class="cls-114" points="810.4 708.11 807.37 725.22 804.59 740.93 803.4 747.69 777.15 739.36 779.83 724.71 779.98 723.9 781.73 714.36 810.4 708.11"/><path class="cls-108" d="M804.59,740.93l-1.19,6.76-26.25-8.33,2.72-14.65c3.84-4.93,13.94-1,13.94-1,14-1.67,9.29,14.67,9.29,14.67A5.38,5.38,0,0,1,804.59,740.93Z"/><path class="cls-115" d="M807.4,796.36c-7-6.34-32.34-9.34-40.67-9.34s-5-2.66-5-2.66l-5.51-4c-3.77-2.73-2-9.19-.57-13,.69-1.78,1.32-3,1.32-3s2.09-15.67,4.18-20.34,17.29-11.72,17.29-11.72c-1.29-14,15.33-7.61,15.33-7.61,14-1.67,9.29,14.67,9.29,14.67,2.67,2,3.34,12.66,2.67,16.33S808.06,771,808.06,771s2.81,10.55,4.51,16.71c.33,1.18.61,2.21.83,3C814.73,795.36,807.4,796.36,807.4,796.36Z"/><path class="cls-108" d="M807.4,796.36c-7-6.34-32.34-9.34-40.67-9.34s-5-2.66-5-2.66l-5.51-4c-3.77-2.73-2-9.19-.57-13l7.46,6.67s-2.13,1.67,0,1.67h8.76s28,5.93,40.72,12c.33,1.18.61,2.21.83,3C814.73,795.36,807.4,796.36,807.4,796.36Z"/><circle class="cls-108" cx="777.15" cy="738.44" r="1.34"/><circle class="cls-108" cx="779.83" cy="749.03" r="1.34"/><circle class="cls-108" cx="779.11" cy="745.1" r="1.34"/><circle class="cls-108" cx="779.83" cy="754.32" r="1.34"/><circle class="cls-108" cx="773.39" cy="759.79" r="1.34"/><path class="cls-108" d="M849.35,775.57l-9.89-.49a3.57,3.57,0,0,1,0-1.89s7.25-6.94-4.75-20.22c0,0,.69-3.11,3.47-2.32,0,0-6.59-11.08-7.59-12.21a.92.92,0,0,1-.12-.54l.81.57L848,750.38Z"/><path class="cls-115" d="M934.48,750.38a21.32,21.32,0,0,1-2.61,10.92,21.55,21.55,0,0,1-4.68,6.05h-.09a72.61,72.61,0,0,1-30.81,5.55c-13.63-.51-30.9-.47-36.72,2.63,0,0-20.13,5.62-18.13-2.38,0,0,7.25-6.94-4.75-20.22,0,0,.69-3.11,3.47-2.32,0,0-6.59-11.08-7.59-12.21-.55-.62.94-5,2.39-8.78.42-1.11.84-2.18,1.21-3.09.66-1.63,1.14-2.76,1.14-2.76.22.13,1.39.84,3.12,1.76,3.23,1.71,8.42,4.14,13.14,4.87,7.24,1.13,13.5,3.5,25,0s16.5-8.33,32.12-2.54S934.11,739.69,934.48,750.38Z"/><path class="cls-108" d="M934.48,750.38a21.32,21.32,0,0,1-2.61,10.92c-2.8-11.78-6.38-19-18.43-28.11-13.25-10-33.75.88-33.75.88s-16.62.74-28.75.74a26.45,26.45,0,0,1-16-5.15,18.21,18.21,0,0,1-2.51-2.22l3.72-.87,4.26-1c3.23,1.71,8.42,4.14,13.14,4.87,7.24,1.13,13.5,3.5,25,0s16.5-8.33,32.12-2.54S934.11,739.69,934.48,750.38Z"/><path class="cls-108" d="M863.06,576s-9,13.67-8.66,17.67-7.34,12-7.34,12-8.33,9-8.33,12.66-15.33,35.53-15.33,35.53S803.06,673,798.73,676s-15,23.33-19.33,26-4.25,21.87-4.25,21.87l30.58-32s34,34.42,36,35.09,8-28,8-28,18.67-17.92,24-22.79,25.93-38.1,25.93-38.1S918.4,603,916.73,592.63,899.23,588.52,863.06,576Z"/><path class="cls-108" d="M866.06,576s-9,13.67-8.66,17.67-7.34,12-7.34,12-8.33,9-8.33,12.66-15.33,35.53-15.33,35.53S806.06,673,801.73,676s-15,23.33-19.33,26-4.25,21.87-4.25,21.87S813.28,701,826.4,753h0l12-17.48s4.33-9.19,6.33-8.52,8-28,8-28,18.67-17.92,24-22.79,25.93-38.1,25.93-38.1S921.4,603,919.73,592.67,898.56,585,866.06,576Z"/><path class="cls-108" d="M810.4,708.11l-3,17.11c-10.33-7.15-21.64-3.87-27.39-1.32l1.75-9.54Z"/><path class="cls-111" d="M865.06,576s-9,13.67-8.66,17.67-7.34,12-7.34,12-8.33,9-8.33,12.66-15.33,35.53-15.33,35.53S805.06,673,800.73,676s-15,23.33-19.33,26-4.25,21.87-4.25,21.87S812.28,701,825.4,753h0l12-17.48s4.33-9.19,6.33-8.52,8-28,8-28,18.67-17.92,24-22.79,25.93-38.1,25.93-38.1S920.4,603,918.73,592.67,901.73,551.69,865.06,576Z"/><path class="cls-108" d="M710.06,609.35s49.44-18.68,77.28,6Z"/><path class="cls-108" d="M715.16,621.6s39.57,6.75,54.57,5.42S715.16,621.6,715.16,621.6Z"/><path class="cls-108" d="M703.73,468.78s-3.11,20.57,4.28,25.57S703.73,468.78,703.73,468.78Z"/><path class="cls-108" d="M683.06,477.35s10.36,16.67,11.35,25.34"/><path class="cls-108" d="M711.4,690.32s37.33,28,34.33,41-2.22,0-2.22,0Z"/><circle class="cls-108" cx="893.51" cy="742.41" r="1.34"/><circle class="cls-108" cx="898.86" cy="770.45" r="1.34"/><path class="cls-108" d="M880.07,624.51S855.87,648,856,659.35s-1.34,26-1.34,26l8.1-30Z"/><path class="cls-108" d="M882.15,601.35s-42.56,34.34-39,38S882.15,601.35,882.15,601.35Z"/><path class="cls-108" d="M816.2,704s20.47,9.52,19.33,13.26S816.2,704,816.2,704Z"/><circle class="cls-108" cx="862.72" cy="749.03" r="1.34"/><circle class="cls-108" cx="844.5" cy="746.44" r="1.34"/><circle class="cls-108" cx="878.73" cy="748.5" r="1.34"/><circle class="cls-108" cx="883.49" cy="769.11" r="1.34"/><circle class="cls-108" cx="886.73" cy="745.82" r="1.34"/><circle class="cls-108" cx="890.98" cy="769.11" r="1.34"/><circle class="cls-108" cx="870.36" cy="749.84" r="1.34"/><circle class="cls-108" cx="873.86" cy="770.45" r="1.34"/><circle class="cls-108" cx="854.61" cy="748.5" r="1.34"/><path class="cls-108" d="M821.87,632.71c-.33,1.83-.46,3-.46,3s-18.67,29.67-31.67,33.67c0,0-29.47,21.72-41.53,22l54.2-37.3Z"/><path class="cls-114" d="M843.73,552.87,841.66,563s-.12.68-.35,1.88c-1.56,8.23-8,41.08-13.25,47.78-6,7.67-7.66,22-7.66,22s-18.67,29.67-31.67,33.67c0,0-50.67,37.33-46.33,14.66s33.66-31.66,33.66-31.66,4-7.67,4-9.34,8.67-12,8.67-12,7.67-14,8-17,13.67-58,13.67-58l7.89-.51Z"/><path class="cls-108" d="M843.73,552.87,841.66,563s-.12.68-.35,1.88c-10.17,1.85-27,4.16-29.36-.22-1.07-2,1.84-5.83,6.34-10.18Z"/><path class="cls-6" d="M849.06,561.36s-16.87,3.84-28,3.84h-1.61c-3.79-.15-6.67-.85-7.55-2.48-1.09-2,1.93-6,6.56-10.39,6.13-5.88,15.08-12.64,21-16.93,3.65-2.64,6.15-4.35,6.15-4.35l3.4,10s-.37,1.78-.77,4.3C847.43,550.8,846.47,559.76,849.06,561.36Z"/><path class="cls-108" d="M745.23,516.35q4.93,12,10.14,23.8a13.79,13.79,0,0,1-3.58,1.28c-6.14,1.32-13-1.24-19-3.83-9-3.86-18.77-8.45-22.83-17.36-3-6.58-2.22-14.19-3.38-21.32-1-6.16-3.49-12.06-4-18.28-.53-7.06,1.55-14,2.74-21q2.31-1,4.38-2c6.58-3.16,21.4-1.78,27.33-1.06a25.23,25.23,0,0,0-.34,4.34,25.74,25.74,0,0,0,.53,4.71c1.48,7.58,5.67,14.77,5.69,22.55,0,4.83-1.61,9.57-1.48,14.4S743.41,511.94,745.23,516.35Z"/><path class="cls-108" d="M854.73,514.69c-1.67,5.67-5.67,26.33-5.67,26.33s-.37,1.78-.77,4.3c-.74-1-1.44-2-2.15-3-.46-.67-.93-1.34-1.42-2a19,19,0,0,0-5.21-4.93,9.18,9.18,0,0,0-4.92-1.39c-2.8.08-5.31,1.64-7.82,2.88-10.1,5-24.14,4.54-30.77-4.59a22.61,22.61,0,0,1-3.93-12.51c9.75-26.67,4.33-66.4,4.33-66.4s31,12.66,51,25.33S856.4,509,854.73,514.69Z"/><path class="cls-113" d="M753.4,376c-1.24,3.83,0,8-.36,12-.88,9.44-10.34,16-12.49,25.26-1.65,7.07,1.26,14.41.93,21.66-.37,8.19-4.86,15.84-4.76,24,.12,9.36,6.19,17.89,6.22,27.25,0,4.84-1.61,9.58-1.48,14.41s1.95,9.31,3.77,13.72q4.93,12,10.14,23.8c-7,3.62-15.38.54-22.59-2.55-9-3.86-18.77-8.45-22.83-17.36-3-6.58-2.21-14.19-3.38-21.32-1-6.16-3.49-12.06-4-18.28-.54-7.24,1.66-14.36,2.83-21.52A75.83,75.83,0,0,0,703.15,423c-1.94-6.4-4.74-12.56-6-19.14s-.7-13.9,3.46-19.14c4.51-5.69,12.18-7.74,17.87-12.27,6-4.8,9.48-12.16,11.67-19.56,1.86-6.3,3.52-13.6,9.28-16.75a15,15,0,0,1,7.59-1.59c8.85.21,17,5.23,25.82,5.78,5,.32,10-.84,15-1.43,12.41-1.45,25.43.77,36,7.45s18.34,18,19.46,30.49c.67,7.46-1,15-.28,22.44a36,36,0,0,0,9.85,21.4c3.48,3.62,7.77,6.54,10.45,10.79a28.52,28.52,0,0,1,3.7,11.46c4.32,30.48-12.6,60.72-9.78,91.38.45,4.91,2,10.51,6.48,12.49-2.24,3.47-7.67,3.3-11.07,1s-5.46-6.15-7.94-9.46-6-6.43-10.13-6.31c-2.8.08-5.31,1.64-7.82,2.88-10.1,5-24.14,4.54-30.77-4.59-5-6.89-4.35-16.28-3-24.69s3.06-17.38-.36-25.18c-2.57-5.84-8-11.08-7.06-17.38.7-4.83,4.89-8.23,8-12,5.87-7.22,8-16.88,7.85-26.18s-2.56-18.41-4.92-27.41c-1.91-7.31-3.94-14.86-8.73-20.7a19.06,19.06,0,0,0-18.87-6.9c-2.94.53-5.71-.75-8.77.11A9.76,9.76,0,0,0,753.4,376Z"/><g class="cls-9"><path d="M843,392.45c.18-4.62.68-9.25.47-13.86C843.26,383.21,842.75,387.84,843,392.45Z"/><path d="M740.16,415.69a20,20,0,0,1,.39-2.42C742.7,404,752.16,397.45,753,388a30.08,30.08,0,0,0,0-4.65c-1.09,9.26-10.32,15.79-12.44,24.91A24,24,0,0,0,740.16,415.69Z"/><path d="M706.36,442.48a75.5,75.5,0,0,0-3.2-24.45c-1.95-6.4-4.75-12.56-6-19.14a34.4,34.4,0,0,1-.47-3.51,31.53,31.53,0,0,0,.47,8.51c1.24,6.58,4,12.74,6,19.14A76,76,0,0,1,706.36,442.48Z"/><path d="M741.6,497.49c.37-3.75,1.35-7.48,1.34-11.27a18.89,18.89,0,0,0-.15-2.38c-.38,3.93-1.44,7.83-1.33,11.79C741.48,496.25,741.53,496.88,741.6,497.49Z"/><path d="M736.87,456.15c.75-7.15,4.29-14,4.62-21.22a29.11,29.11,0,0,0-.08-3.85c-.71,7.76-4.77,15.08-4.68,22.89A19.78,19.78,0,0,0,736.87,456.15Z"/><path d="M860.44,544.16a9.67,9.67,0,0,1-7.78-1.41c-3.41-2.35-5.46-6.15-7.94-9.46s-6-6.43-10.13-6.31c-2.8.08-5.31,1.64-7.82,2.88-10.1,5-24.14,4.54-30.77-4.59a22.18,22.18,0,0,1-3.89-11.94c-.34,6.07.38,12.12,3.89,16.94,6.63,9.13,20.67,9.61,30.77,4.59,2.51-1.24,5-2.8,7.82-2.88,4.14-.12,7.64,3,10.13,6.31s4.53,7.11,7.94,9.46,8.83,2.52,11.08-1A8.37,8.37,0,0,1,860.44,544.16Z"/><path d="M857,524.61c.72-24.69,11.47-49.16,10.71-73.75C867,475.43,856.25,499.89,857,524.61Z"/><path d="M794.54,488.69a28.33,28.33,0,0,0-1.92-13.29c-2-4.57-5.75-8.78-6.84-13.42-.09.34-.16.68-.22,1-.91,6.3,4.49,11.54,7.06,17.38A24.62,24.62,0,0,1,794.54,488.69Z"/><path d="M732.78,530.6c-9-3.86-18.77-8.45-22.83-17.36-3-6.58-2.21-14.19-3.38-21.32-1-6.13-3.45-12-3.94-18.17a33.26,33.26,0,0,0,0,4.89c.47,6.22,3,12.12,4,18.28,1.17,7.13.39,14.74,3.38,21.32,4.06,8.91,13.83,13.5,22.83,17.36,7.22,3.09,15.63,6.17,22.59,2.55-.61-1.41-1.21-2.82-1.83-4.23C747,536.22,739.37,533.43,732.78,530.6Z"/><path d="M787.73,376.72c4.79,5.84,6.82,13.39,8.73,20.7,2.26,8.61,4.5,17.32,4.86,26.21.07-1.27.09-2.54.06-3.8-.19-9.31-2.56-18.41-4.92-27.41-1.91-7.31-3.94-14.86-8.73-20.7a19.06,19.06,0,0,0-18.87-6.9c-2.94.53-5.71-.75-8.77.12A9.71,9.71,0,0,0,753.4,371a19,19,0,0,0-.44,7,12.3,12.3,0,0,1,.44-2,9.71,9.71,0,0,1,6.69-6.06c3.06-.87,5.83.41,8.77-.12A19.06,19.06,0,0,1,787.73,376.72Z"/></g><path class="cls-108" d="M817.2,545.35s15.53,41.34-20.47,58c0,0-64.48-7.29-84.33-2S692,562,701,559.35,817.2,545.35,817.2,545.35Z"/><path class="cls-6" d="M816.2,543.35s15.53,41.34-20.47,58c0,0-64.48-7.29-84.33-2S691,560,700,557.35,816.2,543.35,816.2,543.35Z"/><path class="cls-108" d="M682.14,556.23l5.65,33.5S689.21,564.44,682.14,556.23Z"/><path class="cls-108" d="M763,517s-1.29,15-1.89,19.67S765.34,518.35,763,517Z"/><path class="cls-116" d="M778.44,732.3s13.7,24.23,24.62,7.06"/><path class="cls-116" d="M840.2,750.65s33.31,17.35,21.17,24.18"/><path class="cls-4" d="M486.61,630c-.41,1.44-2.26,2.61-4.93,3.55-10.25,3.64-32.64,4.06-32.64,4.06l-42.23-1-20.9-3a89.64,89.64,0,0,1-9.92-3.47c-2.49-1.1-4.58-2.31-5-3.43,0,0,29.71-12.84,62-10.4S488.59,623.07,486.61,630Z"/><path class="cls-108" d="M486.61,630c-.41,1.44-2.26,2.61-4.93,3.55-10.25,3.64-32.64,4.06-32.64,4.06l-42.23-1-20.9-3a89.64,89.64,0,0,1-9.92-3.47c-2.49-1.1-4.58-2.31-5-3.43,0,0,29.71-12.84,62-10.4S488.59,623.07,486.61,630Z"/><path class="cls-4" d="M486,633.15l-1.25,26.38-.56,11.82-1.85,39-.5,10.7-1.36,28.57c-32.47,16.11-102.29,0-102.29,0l-1.08-28.57-.53-14h0l-1.35-35.73-.55-14.58-.94-25.11C413,644.61,486,633.15,486,633.15Z"/><path class="cls-108" d="M484.72,659.53l-.56,11.82h-109l-.55-14.58C388.68,661.17,447.58,677.78,484.72,659.53Z"/><path class="cls-108" d="M482.31,710.37l-.5,10.7H377.08l-.53-14C393,712.05,446.61,726.12,482.31,710.37Z"/><ellipse class="cls-108" cx="429.84" cy="667.81" rx="26.28" ry="11.12"/><ellipse class="cls-6" cx="429.84" cy="667.17" rx="26.28" ry="11.12"/><ellipse class="cls-108" cx="432.7" cy="633.26" rx="39.47" ry="4.99"/><ellipse class="cls-6" cx="432.92" cy="633.68" rx="39.47" ry="4.99"/><path class="cls-108" d="M486.61,630.43c-.41,1.43-2.26,2.6-4.93,3.55-6.93-18.28-51.81-13.35-51.81-13.35-32.35-2-49.22,7-53.85,10-2.49-1.09-4.58-2.31-5-3.42,0,0,29.71-12.84,62-10.4S488.59,623.49,486.61,630.43Z"/><path class="cls-4" d="M486.61,630c-.41,1.44-2.26,2.61-4.93,3.55-6.93-18.28-51.81-13.35-51.81-13.35-32.35-2-49.22,7-53.85,10-2.49-1.1-4.58-2.31-5-3.43,0,0,29.71-12.84,62-10.4S488.59,623.07,486.61,630Z"/><path class="cls-108" d="M378,743.82s-6.91,3.19-.43,8.49S427,761,437.8,759c0,0,39.37-2.12,44.51-7.75,0,0,.12-3.8-1.77-3.92,0,0-15.21,6.73-48.79,6.15S376.27,750.6,378,743.82Z"/><path class="cls-4" d="M378,744.24s-6.91,3.19-.43,8.5,49.44,8.7,60.27,6.68c0,0,39.37-2.12,44.51-7.74,0,0,.12-3.81-1.77-3.92,0,0-15.21,6.72-48.79,6.14S376.27,751,378,744.24Z"/><path class="cls-4" d="M376.7,710.33c-4.16-1.17-20.29-7.58-12.21-35,0,0,8.7-29.4,14-36.4,0,0-.92-1.64-2.22,0s-5.2,11.36-5.2,11.36-16.88,31.93-8.39,50.29c2.93,6.34,8.21,10,13.87,12"/><path class="cls-108" d="M371,627.21s-.53,4.68,2.81,6.37,97.57,13.79,112.21,3c0,0,2.12-6.58,0-6.37S401.51,644.61,371,627.21Z"/><path class="cls-4" d="M371,626.78s-.53,4.68,2.81,6.38,97.57,13.78,112.21,3c0,0,2.12-6.58,0-6.37S401.51,644.19,371,626.78Z"/><circle class="cls-108" cx="378.43" cy="639.67" r="4.83"/><circle class="cls-4" cx="377.75" cy="638.93" r="4.83"/><path class="cls-4" d="M252.87,629.42c.25.86,1.37,1.57,3,2.14,6.2,2.2,19.74,2.45,19.74,2.45l25.55-.57,12.64-1.8a52.61,52.61,0,0,0,6-2.1c1.5-.66,2.77-1.4,3.05-2.07,0,0-18-7.77-37.48-6.29S251.7,625.22,252.87,629.42Z"/><path class="cls-108" d="M252.87,629.42c.25.86,1.37,1.57,3,2.14,6.2,2.2,19.74,2.45,19.74,2.45l25.55-.57,12.64-1.8a52.61,52.61,0,0,0,6-2.1c1.5-.66,2.77-1.4,3.05-2.07,0,0-18-7.77-37.48-6.29S251.7,625.22,252.87,629.42Z"/><path class="cls-4" d="M253.29,631.32l.75,15.95.34,7.15L255.5,678l.31,6.48.81,17.28c19.64,9.74,61.88,0,61.88,0l.65-17.28.32-8.46h0l.82-21.61.33-8.81.57-15.19C297.44,638.25,253.29,631.32,253.29,631.32Z"/><path class="cls-108" d="M254,647.27l.34,7.15h65.91l.33-8.81C312.13,648.27,276.51,658.32,254,647.27Z"/><path class="cls-108" d="M255.5,678l.31,6.48h63.34l.32-8.46C309.52,679,277.1,687.56,255.5,678Z"/><ellipse class="cls-108" cx="287.24" cy="652.28" rx="15.9" ry="6.72"/><ellipse class="cls-6" cx="287.24" cy="651.9" rx="15.9" ry="6.72"/><ellipse class="cls-117" cx="287.24" cy="651.9" rx="15.9" ry="6.72"/><ellipse class="cls-108" cx="285.51" cy="631.38" rx="23.88" ry="3.02"/><ellipse class="cls-6" cx="285.38" cy="631.64" rx="23.88" ry="3.02"/><ellipse class="cls-117" cx="285.51" cy="631.67" rx="23.88" ry="3.02"/><path class="cls-108" d="M252.87,629.67c.25.87,1.37,1.58,3,2.15,4.2-11.06,31.36-8.07,31.36-8.07,19.57-1.19,29.77,4.25,32.57,6,1.5-.67,2.77-1.4,3.05-2.08,0,0-18-7.76-37.48-6.29S251.7,625.48,252.87,629.67Z"/><path class="cls-4" d="M252.87,629.42c.25.86,1.37,1.57,3,2.14,4.2-11.06,31.36-8.07,31.36-8.07,19.57-1.18,29.77,4.25,32.57,6,1.5-.66,2.77-1.4,3.05-2.07,0,0-18-7.77-37.48-6.29S251.7,625.22,252.87,629.42Z"/><path class="cls-108" d="M318.62,698.26s4.18,1.93.26,5.14-29.91,5.26-36.45,4c0,0-23.82-1.28-26.93-4.69,0,0-.07-2.3,1.07-2.37,0,0,9.2,4.07,29.51,3.72S319.64,702.36,318.62,698.26Z"/><path class="cls-4" d="M318.62,698.51s4.18,1.93.26,5.14-29.91,5.27-36.45,4.05c0,0-23.82-1.29-26.93-4.69,0,0-.07-2.3,1.07-2.37,0,0,9.2,4.07,29.51,3.72S319.64,702.62,318.62,698.51Z"/><path class="cls-4" d="M319.38,678c2.52-.71,12.27-4.58,7.39-21.17,0,0-5.27-17.78-8.47-22,0,0,.56-1,1.34,0s3.15,6.86,3.15,6.86S333,661,327.87,672.11a14,14,0,0,1-8.39,7.26"/><path class="cls-108" d="M322.87,627.72s.32,2.84-1.7,3.86-59,8.34-67.87,1.79c0,0-1.29-4,0-3.85S304.38,638.25,322.87,627.72Z"/><path class="cls-4" d="M322.87,627.47s.32,2.83-1.7,3.85-59,8.34-67.87,1.8c0,0-1.29-4,0-3.85S304.38,638,322.87,627.47Z"/><circle class="cls-108" cx="318.33" cy="635.26" r="2.92"/><circle class="cls-4" cx="318.75" cy="634.82" r="2.92"/><path class="cls-4" d="M983.34,633.16c.25.87,1.37,1.57,3,2.15,6.2,2.19,19.74,2.45,19.74,2.45l25.54-.58,12.64-1.8a52.61,52.61,0,0,0,6-2.1c1.51-.66,2.77-1.39,3-2.07,0,0-18-7.76-37.48-6.29S982.15,629,983.34,633.16Z"/><path class="cls-108" d="M983.34,633.16c.25.87,1.37,1.57,3,2.15,6.2,2.19,19.74,2.45,19.74,2.45l25.54-.58,12.64-1.8a52.61,52.61,0,0,0,6-2.1c1.51-.66,2.77-1.39,3-2.07,0,0-18-7.76-37.48-6.29S982.15,629,983.34,633.16Z"/><path class="cls-4" d="M983.73,635.06l.76,16,.34,7.15,1.11,23.6.31,6.47.82,17.28c19.64,9.75,61.87,0,61.87,0l.65-17.28.32-8.46h0l.82-21.61.33-8.82.58-15.19C1027.87,642,983.73,635.06,983.73,635.06Z"/><path class="cls-108" d="M984.49,651l.34,7.15h65.9l.33-8.82C1042.58,652,1007,662.06,984.49,651Z"/><path class="cls-108" d="M985.94,681.77l.31,6.47h63.34l.32-8.46C1040,682.79,1007.54,691.3,985.94,681.77Z"/><ellipse class="cls-108" cx="1017.68" cy="656.03" rx="15.9" ry="6.72"/><ellipse class="cls-6" cx="1017.68" cy="655.64" rx="15.9" ry="6.72"/><ellipse class="cls-118" cx="1017.68" cy="655.64" rx="15.9" ry="6.72"/><ellipse class="cls-108" cx="1015.95" cy="635.13" rx="23.88" ry="3.02"/><ellipse class="cls-6" cx="1015.82" cy="635.38" rx="23.88" ry="3.02"/><ellipse class="cls-118" cx="1016.85" cy="635.13" rx="23.88" ry="3.02"/><path class="cls-108" d="M983.34,633.42c.25.86,1.37,1.57,3,2.14,4.19-11.06,31.35-8.07,31.35-8.07,19.57-1.18,29.77,4.25,32.57,6,1.51-.66,2.77-1.4,3-2.07,0,0-18-7.77-37.48-6.29S982.15,629.22,983.34,633.42Z"/><path class="cls-4" d="M983.34,633.16c.25.87,1.37,1.57,3,2.15,4.19-11.06,31.35-8.08,31.35-8.08,19.57-1.18,29.77,4.25,32.57,6,1.51-.66,2.77-1.39,3-2.07,0,0-18-7.76-37.48-6.29S982.15,629,983.34,633.16Z"/><path class="cls-106" d="M1007.3,630Z"/><path class="cls-107" d="M1027.58,646.14l.55,2.54c-1-.39-3.33-5.42-3.33-5.42-.89.7.36,4.93.36,4.93-1.52-1.05-2.38-4.7-2.38-4.7a12.26,12.26,0,0,0,0,2.84c-1.25-1.34-2.28-5.18-2.28-5.18-.38.27-.31,2.81-.31,2.93,0-.15-1.14-4.77-1.35-4.48a27.42,27.42,0,0,0-.73,3.23c-1.06-.18-3.86-6.51-3.86-6.51s-.57-.88-.44-.59a16.75,16.75,0,0,1,0,2.65c-1.43-.61-1.92-5.82-1.92-5.82l-.86,1.93-.9-1.86c0,.08.78,2.74.31,2.58s-1.55-2.84-1.66-3.37.64-1.74.64-1.74-1.87-.1-2.15-.09c.38-.21,4-3.84,4-3.84s.08-.14.23-.36a28,28,0,0,1,2.79-3.79,22.84,22.84,0,0,0,2.48-3.39c.31-.47.51-.8.51-.8L1036.05,629l-.36.86c-.22.5-.45,1-.7,1.48-.39.76-.82,1.5-1.28,2.22-.93,1.45-2.16,3.35-3.12,4.82-.59.9-1.09,1.64-1.34,2-1,1.42-.57,3.89-.76,4.34s1,4.08,1,4.08A18.45,18.45,0,0,1,1027.58,646.14Z"/><path class="cls-108" d="M1027.53,646.14v-4.79c0-1.19,5.84-13.05,6.09-13.55h.08c-.07.13-6.07,12.34-6.08,13.52s0,4.75,0,4.79Z"/><path class="cls-109" d="M1007.3,630Z"/><path class="cls-108" d="M1010.43,635.22a27.73,27.73,0,0,1-.82-3.35c-.1-.86.73-2.11,1.33-3a5.38,5.38,0,0,0,.5-.83c.82-1.27,1.71-2.49,2.65-3.67,0,0,2.33-3.28,2.49-3.75a15.3,15.3,0,0,1,1.26-2h.07a14.25,14.25,0,0,0-1.25,2c-.16.48-2.4,3.64-2.5,3.78s-2.39,3.05-2.64,3.65a4.75,4.75,0,0,1-.51.83c-.56.85-1.41,2.14-1.31,3a31.08,31.08,0,0,0,.81,3.33Z"/><path class="cls-108" d="M1011,634.59c-.22-.45,1.11-4.11,1.37-4.38s2.34-4.25,2.42-4.46,3.25-5,4.24-6.53h.07c-1.44,2.2-4.17,6.39-4.23,6.51s-2.14,4.16-2.44,4.49a14.93,14.93,0,0,0-1.35,4.28Z"/><path class="cls-108" d="M1013.81,638.41c-1.48-1.89.48-8.37.5-8.44.21-.68,5.89-9.45,6.13-9.83l.07.05c0,.09-5.91,9.13-6.12,9.81-.55,1.8-1.72,6.82-.51,8.35Z"/><path class="cls-108" d="M1015.87,639.73c-1.31-2.58,1.1-8.13,1.12-8.18.19-.42,5.48-9.37,5.7-9.75h.08c-.06.09-5.51,9.33-5.7,9.74,0,.06-2.41,5.56-1.12,8.11Z"/><path class="cls-108" d="M1017.42,642.3c-1-1.17-1.14-3.39-.44-6.61a33.37,33.37,0,0,1,1.38-4.57l5-9.25h.07l-5,9.25c0,.08-3.33,8.43-.9,11.14l-.07.06Z"/><path class="cls-108" d="M1018.08,642.85c-.66-1.35,0-5.32.48-7.15s6.58-11.85,6.84-12.28l.08.05c-.07.1-6.37,10.55-6.83,12.25s-1.13,5.78-.49,7.09Z"/><path class="cls-108" d="M1019.33,640.88l1-4.39a11.89,11.89,0,0,1,1.22-3.21L1024,629l3-4.62h.07l-3,4.62-2.43,4.31a11.76,11.76,0,0,0-1.22,3.19l-1,4.39Z"/><path class="cls-108" d="M1022.6,646.19c-1.27-1.49-.54-5.6-.14-7.85.08-.47.15-.85.17-1.08.14-1.3,5.68-11.79,5.92-12.24h.07c0,.11-5.76,10.92-5.9,12.21a8.21,8.21,0,0,1-.18,1.09c-.38,2.15-1.17,6.63.28,7.93l-.06.07Z"/><path class="cls-108" d="M1022.76,643.6s.17-2.36.15-2.92q.9-3.18,2.1-6.26l4.32-9h.08l-4.32,9s-2.13,5.67-2.1,6.22-.13,2.84-.14,2.94Z"/><path class="cls-108" d="M1025.12,648.21c-2.09-3.22-.08-11.46.25-12.14s4.86-10.09,4.91-10.18h.07c0,.09-4.57,9.51-4.9,10.18s-2.33,8.86-.26,12Z"/><path class="cls-108" d="M1027.61,648.23c-2.76-3.26-.35-11.5,0-12.22l4.17-9.07h.08l-4.17,9.08c-.35.75-3,9.81.49,12.59v.07A3.53,3.53,0,0,1,1027.61,648.23Z"/><path class="cls-108" d="M1035.69,629.88l-18.82-11.25c.31-.47.51-.8.51-.8L1036.05,629Z"/><path class="cls-110" d="M1036.2,629.87l-19.63-11.73,2.92-3.48,2.13-2.54s.39-2.23,2.18-2.27,5.37,3.84,6.73,3.21,5.58-8.81,5.58-8.81,8.34-11,9.06-12.22,7.77-6.58,7.77-6.58c1.15,0-.73,4.78-.87,6s-6.16,10.53-7,11-7.26,8.8-7.26,8.8c-2.82,2.39-2.94,4.61-2.94,4.61a26.33,26.33,0,0,1,5.45,3.91,1.72,1.72,0,0,1,.25,2.07l-2.22,4.43Z"/><path class="cls-108" d="M1036.2,629.87l-19.63-11.73,2.92-3.48c1.76,1.44,13,10.46,18.84,11.52Z"/><path class="cls-6" d="M1027.58,646.14l.55,2.54c-1-.39-3.33-5.42-3.33-5.42-.89.7.36,4.93.36,4.93-1.52-1.05-2.38-4.7-2.38-4.7-.24.2,0,2.84,0,2.84-1.25-1.34-2.28-5.18-2.28-5.18-.39.27-.31,2.8-.31,2.93,0-.15-1.14-4.77-1.35-4.48a27.42,27.42,0,0,0-.73,3.23c-1.06-.18-3.86-6.51-3.86-6.51s-.57-.88-.44-.59a16.75,16.75,0,0,1,0,2.65c-1.43-.61-1.92-5.82-1.92-5.82l-.86,1.93-.9-1.86c0,.07.78,2.74.31,2.58s-1.55-2.84-1.66-3.37.64-1.74.64-1.74-1.87-.1-2.15-.09c.38-.21,4-3.84,4-3.84l.23-.36c.17.54.3,1.07.43,1.43a3.48,3.48,0,0,0,.79,1.4,2.55,2.55,0,0,0,2.06.5c.73-.09,1.43-.33,2.15-.41a1.21,1.21,0,0,1,.91.16,1.46,1.46,0,0,1,.43.82,11.75,11.75,0,0,0,3.54,5.54,1.47,1.47,0,0,0,.57.35,2.22,2.22,0,0,0,.89,0,3,3,0,0,1,3,1.61c.24.5.39,1.13.89,1.38a1.88,1.88,0,0,0,.94.08l2.41-.23c-.59.9-1.09,1.64-1.34,2-1,1.42-.57,3.89-.76,4.34s1,4.08,1,4.08A18.49,18.49,0,0,1,1027.58,646.14Z"/><path class="cls-118" d="M1027.68,646.14l.56,2.54c-1-.39-3.33-5.42-3.33-5.42-.89.7.36,4.93.36,4.93-1.52-1.05-2.38-4.7-2.38-4.7-.24.2,0,2.84,0,2.84-1.25-1.34-2.28-5.18-2.28-5.18-.39.27-.31,2.8-.31,2.93,0-.15-1.14-4.77-1.35-4.48a27.42,27.42,0,0,0-.73,3.23c-1.06-.18-3.86-6.51-3.86-6.51s-.58-.88-.45-.59a16.75,16.75,0,0,1,0,2.65c-1.43-.61-1.92-5.82-1.92-5.82l-.87,1.93-.89-1.86c0,.07.78,2.74.31,2.58s-1.55-2.84-1.66-3.37.64-1.74.64-1.74-1.88-.1-2.15-.09c.37-.21,4-3.84,4-3.84l.23-.36c.17.54.3,1.07.43,1.43a3.48,3.48,0,0,0,.79,1.4,2.55,2.55,0,0,0,2.06.5c.73-.09,1.42-.33,2.15-.41a1.21,1.21,0,0,1,.91.16,1.46,1.46,0,0,1,.43.82,11.75,11.75,0,0,0,3.54,5.54,1.43,1.43,0,0,0,.56.35,2.27,2.27,0,0,0,.9,0,3,3,0,0,1,3,1.61c.24.5.39,1.13.89,1.38a1.88,1.88,0,0,0,.94.08l2.41-.23c-.6.9-1.09,1.64-1.34,2-1,1.42-.57,3.89-.76,4.34s1,4.08,1,4.08A17.73,17.73,0,0,1,1027.68,646.14Z"/><path class="cls-108" d="M1049.06,702s4.18,1.93.26,5.14-29.9,5.26-36.45,4c0,0-23.82-1.28-26.93-4.68,0,0-.07-2.3,1.07-2.37,0,0,9.21,4.06,29.52,3.71S1050.09,706.1,1049.06,702Z"/><rect class="cls-4" x="1002.98" y="637.32" width="32.5" height="11.39"/><path class="cls-4" d="M1049.06,702.26s4.18,1.93.26,5.14-29.9,5.26-36.45,4c0,0-23.82-1.28-26.93-4.69,0,0-.07-2.3,1.07-2.37,0,0,9.21,4.07,29.52,3.72S1050.09,706.36,1049.06,702.26Z"/><path class="cls-4" d="M1049.87,681.74c2.52-.71,12.28-4.58,7.39-21.17,0,0-5.26-17.78-8.47-22,0,0,.56-1,1.35,0s3.14,6.87,3.14,6.87,10.21,19.32,5.07,30.42a14,14,0,0,1-8.39,7.26"/><path class="cls-108" d="M1053.3,631.47s.32,2.83-1.7,3.85-59,8.34-67.87,1.8c0,0-1.28-4,0-3.86S1034.87,642,1053.3,631.47Z"/><path class="cls-4" d="M1053.3,631.21s.32,2.83-1.7,3.86-59,8.34-67.87,1.79c0,0-1.28-4,0-3.85S1034.87,641.74,1053.3,631.21Z"/><circle class="cls-108" cx="1048.78" cy="639.01" r="2.92"/><circle class="cls-4" cx="1049.19" cy="638.56" r="2.92"/><ellipse class="cls-1" cx="116.43" cy="773.81" rx="26.93" ry="4.55"/><path class="cls-6" d="M1076.37,814.88a11.59,11.59,0,0,0,3.83-5.78c.5-2.3-.48-5.06-2.67-5.9-2.46-.94-5.09.77-7.09,2.49s-4.27,3.69-6.88,3.32a10.47,10.47,0,0,0,3.24-9.81,4,4,0,0,0-.9-2c-1.37-1.46-3.84-.83-5.48.32-5.2,3.65-6.65,10.72-6.68,17.07-.52-2.29-.08-4.68-.09-7s-.66-5-2.64-6.22a8,8,0,0,0-4-1c-2.34-.09-4.94.15-6.54,1.86-2,2.12-1.47,5.69.26,8s4.35,3.81,6.76,5.42a15,15,0,0,1,4.84,4.62,4.26,4.26,0,0,1,.36.82h14.65A40.28,40.28,0,0,0,1076.37,814.88Z"/><path class="cls-119" d="M98.35,752.65s15.36-.47,20-3.77,23.62-7.23,24.77-1.94,23.08,26.29,5.74,26.43-40.29-2.7-44.91-5.52S98.35,752.65,98.35,752.65Z"/><path class="cls-118" d="M149.16,771.53c-17.34.14-40.29-2.7-44.91-5.52-3.52-2.14-4.92-9.83-5.39-13.38h-.51s1,12.39,5.59,15.2,27.57,5.66,44.91,5.52c5,0,6.74-1.82,6.64-4.46C154.8,770.5,152.87,771.5,149.16,771.53Z"/><path class="cls-120" d="M247.47,385.55s4,11,2.46,20.5.53,2.83,1.78,6.95S253,431.24,253,431.24v-9.68s-.46-14.75,0-19.13S247.47,385.55,247.47,385.55Z"/><path class="cls-120" d="M284,369.16s4,11,2.46,20.5.53,2.83,1.78,6.94,1.26,18.25,1.26,18.25v-9.69s-.46-14.75,0-19.12S284,369.16,284,369.16Z"/><path class="cls-117" d="M267.42,259.34s7.92,11,4.92,20.5-5,14.77-2.5,18.89,8.58,6.3,8.58,6.3v-9.68s-.92-14.75,0-19.13S267.42,259.34,267.42,259.34Z"/><path class="cls-117" d="M453.61,249.09s-1.41,13.46-10,18.57-13.53,7.73-14.41,12.46,2.19,10.38,2.19,10.38l6.43-7.23s9.12-11.63,12.72-14.29S453.61,249.09,453.61,249.09Z"/><path class="cls-6" d="M530.28,491.14a30.42,30.42,0,0,0-1.14,4.21,4.22,4.22,0,0,0,1.4,3.92,1.41,1.41,0,0,0,1.1.3c.8-.17,1-1.2,1-2,0-1.61,0-3.22-.1-4.84a12.25,12.25,0,0,0-.41-3.24,3.75,3.75,0,0,0-1.64-2.31C530.12,488,530.59,489.94,530.28,491.14Z"/><path class="cls-6" d="M548,501a30.38,30.38,0,0,0-1.13,4.21,4.16,4.16,0,0,0,1.4,3.92,1.44,1.44,0,0,0,1.09.31c.81-.17,1-1.2,1-2,0-1.61,0-3.22-.09-4.83a12.71,12.71,0,0,0-.42-3.25,3.69,3.69,0,0,0-1.63-2.3C547.87,497.89,548.31,499.81,548,501Z"/><path class="cls-6" d="M539.55,488.1a10.65,10.65,0,0,0,.48-1.76,1.76,1.76,0,0,0-.59-1.64.54.54,0,0,0-.46-.13c-.34.07-.43.5-.44.85v2a5.18,5.18,0,0,0,.18,1.36,1.54,1.54,0,0,0,.68,1C539.61,489.41,539.42,488.61,539.55,488.1Z"/><path class="cls-6" d="M635.06,297.1a11,11,0,0,0,.48-1.77,1.73,1.73,0,0,0-.59-1.64.63.63,0,0,0-.46-.13c-.34.07-.43.51-.43.85v2a4.79,4.79,0,0,0,.17,1.36,1.6,1.6,0,0,0,.68,1C635.13,298.4,634.93,297.6,635.06,297.1Z"/><ellipse class="cls-6" cx="548.63" cy="732.83" rx="7.53" ry="1.22"/><ellipse class="cls-6" cx="554.92" cy="733.55" rx="7.53" ry="1.22"/><ellipse class="cls-6" cx="557.54" cy="730.54" rx="7.53" ry="1.22"/><ellipse class="cls-6" cx="562.45" cy="734.06" rx="7.53" ry="1.22"/><path class="cls-6" d="M332.22,264.05v71.27c0,2.14.3,3.6.88,4.39s1.67,1.18,3.25,1.18h4.33q4.85-.09,5.06,5.88v20.94q0,5.48-5.57,6.19c-2.41.28-3.92.72-4.54,1.34s-.93,2.1-.93,4.44v12.17q.41,6.5-6,6.8H293.44c-2.47,0-4.09-.43-4.84-1.29s-1.14-2.69-1.14-5.51V381.22c0-2.88-.55-4.9-1.65-6s-3-1.7-5.78-1.7H239.81q-7.23,0-10.16-3.05T226.71,360c0-6.61.79-11.76,2.37-15.48q2.89-6.9,16.61-23.31l26.2-31.46q19.69-23.61,29.08-30.11a37.73,37.73,0,0,1,10.27-4.75A38.36,38.36,0,0,1,322.53,253c3.44,0,5.91.86,7.43,2.57S332.22,260.13,332.22,264.05ZM288.9,317.58v-5.05q0-9.28-5.15-9.28-3.93,0-7.33,4.23L260.54,327q-6.92,8.56-6.91,12.27,0,2.68,2.89,3.46c1.92.51,6.7.88,14.33,1.08l8.15.11q5.26,0,7.12-1.19c1.24-.79,2-2.36,2.17-4.69Q288.9,332.34,288.9,317.58Z"/><path class="cls-6" d="M412.69,260.13A57.73,57.73,0,0,1,439.92,267a59.09,59.09,0,0,1,26.5,27.65,64.55,64.55,0,0,1,6.5,28.57q0,27.64-21.14,45.28a56.3,56.3,0,0,1-36.93,13.4q-22.89,0-39-14.95-19.08-17.64-19.08-47.14,0-28.77,17.43-45.17Q389.59,260.13,412.69,260.13Zm-2.38,30.74q-9.58,0-9.59,16.3,0,21.34,8.15,38.37,3.19,6.6,8.56,6.6,9.39,0,9.39-16.61a106.45,106.45,0,0,0-2-19.85,73.65,73.65,0,0,0-5.11-17.18Q416.3,291.18,410.31,290.87Z"/><path class="cls-6" d="M584.74,264.05v71.27c0,2.14.29,3.6.88,4.39s1.66,1.18,3.24,1.18h4.34q4.84-.09,5,5.88v20.94q0,5.48-5.57,6.19c-2.41.28-3.92.72-4.54,1.34s-.93,2.1-.93,4.44v12.17q.42,6.5-6,6.8H546q-3.72,0-4.85-1.29c-.76-.86-1.13-2.69-1.13-5.51V381.22c0-2.88-.56-4.9-1.65-6s-3-1.7-5.78-1.7H492.32q-7.21,0-10.16-3.05T479.22,360c0-6.61.79-11.76,2.38-15.48q2.88-6.9,16.6-23.31l26.2-31.46q19.7-23.61,29.09-30.11a37.81,37.81,0,0,1,10.26-4.75A38.42,38.42,0,0,1,575,253q5.16,0,7.43,2.57T584.74,264.05Zm-43.32,53.53v-5.05q0-9.28-5.16-9.28-3.91,0-7.32,4.23L513.05,327q-6.9,8.56-6.91,12.27c0,1.79,1,2.94,2.89,3.46s6.71.88,14.34,1.08l8.15.11c3.5,0,5.88-.4,7.11-1.19s2-2.36,2.17-4.69Q541.42,332.34,541.42,317.58Z"/><path class="cls-6" d="M341.72,99a17.55,17.55,0,0,1,11,3.59,18.51,18.51,0,0,1,5.15,6.4,17.45,17.45,0,0,1,1.93,7.81A15.59,15.59,0,0,1,356,127.1a17.89,17.89,0,0,1-8.42,5.54,20.72,20.72,0,0,1-6.42,1,19.28,19.28,0,0,1-8.08-1.76,16.17,16.17,0,0,1-7.3-6.42,17.08,17.08,0,0,1-2.57-9.15,16.74,16.74,0,0,1,3.3-10.26,16.93,16.93,0,0,1,7.88-5.81A20.45,20.45,0,0,1,341.72,99Zm-2.32,7a3.7,3.7,0,0,0-3.25,1.83,5.62,5.62,0,0,0-.93,3.25,21.93,21.93,0,0,0,1.13,6.38,28.07,28.07,0,0,0,2.83,6.43,5.89,5.89,0,0,0,1.87,1.91,4.16,4.16,0,0,0,2.25.71,3.66,3.66,0,0,0,3-1.4,5.56,5.56,0,0,0,1.14-3.66,24,24,0,0,0-.95-6.37,22.24,22.24,0,0,0-2.47-5.83,7.79,7.79,0,0,0-2.15-2.35A4.54,4.54,0,0,0,339.4,106Z"/><path class="cls-6" d="M377.05,108.67a13.42,13.42,0,0,1,7.83,2.32,12.55,12.55,0,0,1,3.89,4.32,12.1,12.1,0,0,1,1.51,5.81q0,5.3-4.86,9a17,17,0,0,1-10.62,3.54,13.44,13.44,0,0,1-9.45-3.32,10.88,10.88,0,0,1-3.51-8.4,11.82,11.82,0,0,1,4.29-9.42A16.22,16.22,0,0,1,377.05,108.67Zm-2,5.64a2.11,2.11,0,0,0-1.72.79,3.26,3.26,0,0,0-.64,2.11,20.39,20.39,0,0,0,.54,4,31.73,31.73,0,0,0,1.31,4.48,2.61,2.61,0,0,0,2.47,2c1.44,0,2.17-.92,2.17-2.76a22.61,22.61,0,0,0-.55-4.66,19.3,19.3,0,0,0-1.33-4.25A2.58,2.58,0,0,0,375.09,114.31Z"/><path class="cls-6" d="M404.1,108.82a4.1,4.1,0,0,1,1.86.25c.24.17.36.6.36,1.28s.2.91.59.91a6.21,6.21,0,0,0,1.63-.93,9.42,9.42,0,0,1,2.68-1.18,10.44,10.44,0,0,1,2.94-.48,8.17,8.17,0,0,1,5.54,2.15,10.86,10.86,0,0,1,2.88,4.12,14.3,14.3,0,0,1,1.08,5.5,13.45,13.45,0,0,1-4.15,10.13,10.18,10.18,0,0,1-7.28,3.1,10.49,10.49,0,0,1-4.27-1,1.88,1.88,0,0,0-.71-.19c-.49,0-.73.49-.73,1.46a3.1,3.1,0,0,0,1.29,2.79,8.54,8.54,0,0,1,1.43,1.08,1.52,1.52,0,0,1,.23.94,2.46,2.46,0,0,1-1.63,2.26,10.85,10.85,0,0,1-4.62.79,19.4,19.4,0,0,1-9.28-2.12c-1.35-.72-2-1.6-2-2.66a1.75,1.75,0,0,1,.3-1.11,3.59,3.59,0,0,1,1.19-.8A2.71,2.71,0,0,0,395,133a85.88,85.88,0,0,0,.42-8.84,43.33,43.33,0,0,0-.44-6.74.48.48,0,0,0-.28-.31,9.92,9.92,0,0,0-1.2-.27,2.11,2.11,0,0,1-1.27-.72,2,2,0,0,1-.49-1.38,2.43,2.43,0,0,1,.68-1.72,7.2,7.2,0,0,1,2.22-1.46Q400.58,108.87,404.1,108.82Zm2.42,9.22-.37,6.72c0,.28,0,.54,0,.8a1.41,1.41,0,0,0,.66,1.22,3,3,0,0,0,1.75.47q3.38,0,3.37-5.54c0-2.4-.47-4.08-1.41-5.06a2.85,2.85,0,0,0-2.1-.9C407.24,115.75,406.61,116.51,406.52,118Z"/><path class="cls-6" d="M435.28,108.69a23.7,23.7,0,0,1,4,.54,5.09,5.09,0,0,0,.93.1,6.2,6.2,0,0,0,1.61-.44,2.61,2.61,0,0,1,.95-.22,3.1,3.1,0,0,1,2.27,1.44,10.67,10.67,0,0,1,1.51,2.51,6.29,6.29,0,0,1,.59,2.37,2.17,2.17,0,0,1-.68,1.63,2.4,2.4,0,0,1-1.71.64,2.83,2.83,0,0,1-1.53-.41A16.47,16.47,0,0,1,441,115a4.29,4.29,0,0,0-2.59-1.52,1.63,1.63,0,0,0-1.18.5,1.61,1.61,0,0,0-.5,1.19c0,.8.76,1.54,2.29,2.24a21.29,21.29,0,0,1,6.33,4.06,6.19,6.19,0,0,1,1.85,4.54,6.85,6.85,0,0,1-3,5.66,10,10,0,0,1-6.27,2,33.82,33.82,0,0,1-3.47-.32c-1.58-.18-2.46-.27-2.66-.27a4.15,4.15,0,0,0-.73.08,9.25,9.25,0,0,1-1,.09,2.62,2.62,0,0,1-1.8-.58,8.26,8.26,0,0,1-1.86-2.85,8.49,8.49,0,0,1-.85-3.33c0-1.5.58-2.24,1.75-2.24a2,2,0,0,1,1.26.45,30.57,30.57,0,0,1,2.41,2.4,8.53,8.53,0,0,0,1.66,1.48,2.64,2.64,0,0,0,1.41.4,1.89,1.89,0,0,0,1.3-.43,1.43,1.43,0,0,0,.48-1.13c0-.73-.62-1.4-1.88-2a17.59,17.59,0,0,1-5.67-4,7.08,7.08,0,0,1-1.75-4.74,7.52,7.52,0,0,1,1.78-5A8.6,8.6,0,0,1,435.28,108.69Z"/><path class="cls-6" d="M456,122.15a5.65,5.65,0,0,1,4,1.61,5.53,5.53,0,0,1,1.73,4.22,5.42,5.42,0,0,1-1.73,4.08,5.85,5.85,0,0,1-8.06,0,5.53,5.53,0,0,1-1.73-4.15,5.42,5.42,0,0,1,1.73-4.15A5.8,5.8,0,0,1,456,122.15Z"/><path class="cls-6" d="M471.12,122.15a5.65,5.65,0,0,1,4,1.61,5.53,5.53,0,0,1,1.73,4.22,5.42,5.42,0,0,1-1.73,4.08,5.85,5.85,0,0,1-8.06,0,5.53,5.53,0,0,1-1.73-4.15,5.42,5.42,0,0,1,1.73-4.15A5.8,5.8,0,0,1,471.12,122.15Z"/><path class="cls-6" d="M486.21,122.15a5.65,5.65,0,0,1,4,1.61A5.53,5.53,0,0,1,492,128a5.43,5.43,0,0,1-1.74,4.08,5.84,5.84,0,0,1-8.05,0,5.5,5.5,0,0,1-1.74-4.15,5.4,5.4,0,0,1,1.74-4.15A5.76,5.76,0,0,1,486.21,122.15Z"/><path class="cls-6" d="M224.38,181.51V168.67a8.67,8.67,0,0,0-.35-3.16c-.22-.45-.84-.81-1.85-1.09-1.47-.42-2.2-1.15-2.2-2.2a1.87,1.87,0,0,1,.93-1.68,5,5,0,0,1,2.68-.59c.4,0,1.36,0,2.91.08H228q4,0,4.74-.06c.47,0,2.12-.17,5-.43a24.88,24.88,0,0,1,2.59-.15A15.14,15.14,0,0,1,247.4,161a9.44,9.44,0,0,1,5.44,9,9.68,9.68,0,0,1-3.81,8,13.68,13.68,0,0,1-8.69,2.8c-.86,0-1.92-.05-3.17-.17-.67,0-1.08-.07-1.25-.07-.47,0-.7.27-.7.8v.15l.17,4a3.46,3.46,0,0,0,.42,1.74,4.18,4.18,0,0,0,1.55,1.18q1.59.85,1.59,1.86,0,1.55-2.34,2.37a20.85,20.85,0,0,1-6.64.83q-9,0-9-3.1a1.55,1.55,0,0,1,.39-1.13,8.69,8.69,0,0,1,1.84-1.12,1.81,1.81,0,0,0,1-1.29C224.28,186.3,224.34,184.52,224.38,181.51Zm11-15.94v8.3c0,.63.14,1,.41,1.15a4.07,4.07,0,0,0,1.78.34,4.12,4.12,0,0,0,2.71-.9q1.59-1.31,1.59-4.35T240,165.52a4.55,4.55,0,0,0-2.84-.9C236,164.62,235.39,164.93,235.39,165.57Z"/><path class="cls-6" d="M267.52,168.67a11.93,11.93,0,0,1,7.2,2.15,6.4,6.4,0,0,1,2.19,2.62,10.87,10.87,0,0,1,.62,4.07l0,3.64a13.8,13.8,0,0,0,.54,4.9,1.73,1.73,0,0,0,.51.69,3.54,3.54,0,0,0,1,.26.91.91,0,0,1,.79,1,4.17,4.17,0,0,1-.94,2.44A7.85,7.85,0,0,1,277,192.6a7.53,7.53,0,0,1-3.84,1.07,5,5,0,0,1-4.05-1.76,1.36,1.36,0,0,0-.95-.63,2.41,2.41,0,0,0-1.3.61,9.12,9.12,0,0,1-5.54,1.78,8.93,8.93,0,0,1-5.17-1.37,6.31,6.31,0,0,1-2.05-2.35,6.46,6.46,0,0,1-.76-3,6,6,0,0,1,2.05-4.5q3.19-3.07,9.57-3.1a3.44,3.44,0,0,0,1.78-.28c.25-.18.37-.62.37-1.3a9.49,9.49,0,0,0-.54-3.75,1.82,1.82,0,0,0-1.76-1.16,2.1,2.1,0,0,0-1.3.44,7.91,7.91,0,0,0-1.43,1.61q-2.18,3.1-4.54,3.1a2.69,2.69,0,0,1-1.95-.71,2.4,2.4,0,0,1-.76-1.85,3.76,3.76,0,0,1,.94-2.35,8.36,8.36,0,0,1,2.55-2.05A19.47,19.47,0,0,1,267.52,168.67Zm-1.64,14.14a2.47,2.47,0,0,0-1.87.87,3.08,3.08,0,0,0-.79,2.1,3,3,0,0,0,.56,1.9,1.8,1.8,0,0,0,1.49.72c1.3,0,2-1.1,2-3.3a3.87,3.87,0,0,0-.29-1.81A1.16,1.16,0,0,0,265.88,182.81Z"/><path class="cls-6" d="M308,167.38a1.31,1.31,0,0,1,1.08.69,2.87,2.87,0,0,1,.46,1.62,5.22,5.22,0,0,1-.62,2.28,6.27,6.27,0,0,1-1.5,2c-.38.33-.56.59-.56.78s0,.25.05.59a8.18,8.18,0,0,1,.07.93,6.69,6.69,0,0,1-1.95,4.88,12,12,0,0,1-4.53,2.73,18,18,0,0,1-6.09,1,11.91,11.91,0,0,1-1.59-.1,8.67,8.67,0,0,0-1-.07,1.14,1.14,0,0,0-1.29,1.29,1.45,1.45,0,0,0,.84,1.31,4.6,4.6,0,0,0,2.28.48,22.24,22.24,0,0,0,2.88-.27,46.2,46.2,0,0,1,5.91-.56,8.69,8.69,0,0,1,4.47.95,5.28,5.28,0,0,1,2,2.05,5.63,5.63,0,0,1,.75,2.83,7.71,7.71,0,0,1-1.81,4.79,12.6,12.6,0,0,1-6.32,4,25.45,25.45,0,0,1-7.57,1,19.94,19.94,0,0,1-8.79-1.66,6.74,6.74,0,0,1-2.49-2.05,4.38,4.38,0,0,1-.93-2.63,3.16,3.16,0,0,1,.53-1.76,2.94,2.94,0,0,1,1.33-1.15c.49-.19.73-.41.73-.63s-.2-.44-.61-.79a4.54,4.54,0,0,1-2-3.39,4,4,0,0,1,.94-2.42,6.29,6.29,0,0,1,2.33-1.92c.39-.2.59-.39.59-.59s-.25-.57-.74-1a7.16,7.16,0,0,1-2.51-5.42,6,6,0,0,1,.89-3.12,7.89,7.89,0,0,1,2.48-2.54,15.59,15.59,0,0,1,8.71-2.56,20.7,20.7,0,0,1,4.25.49,19,19,0,0,0,3,.43,8.53,8.53,0,0,0,5.3-2.09A1.71,1.71,0,0,1,308,167.38ZM289.4,194.65c-.41,0-.61.23-.61.7a2.66,2.66,0,0,0,1.56,2.34,8.15,8.15,0,0,0,4,.89,9.07,9.07,0,0,0,3.75-.64,2,2,0,0,0,1.35-1.78,1.32,1.32,0,0,0-.51-1,1.93,1.93,0,0,0-1.27-.43,10.47,10.47,0,0,0-1.12.1,18.91,18.91,0,0,1-3.05.22,23.23,23.23,0,0,1-2.4-.12,9.36,9.36,0,0,1-1.39-.2A2,2,0,0,0,289.4,194.65Zm5.32-22.22a2.4,2.4,0,0,0-2,.93,3.86,3.86,0,0,0-.74,2.46,9.52,9.52,0,0,0,.8,4.23,2.42,2.42,0,0,0,2.13,1.58,2.45,2.45,0,0,0,2.05-1,4.25,4.25,0,0,0,.76-2.64,8.56,8.56,0,0,0-.8-4.07A2.55,2.55,0,0,0,294.72,172.43Z"/><path class="cls-6" d="M333.29,182.07H321.82c-.51,0-.76.22-.76.66a3.93,3.93,0,0,0,1.72,3,5.74,5.74,0,0,0,3.7,1.41,9.95,9.95,0,0,0,5-1.57,2.54,2.54,0,0,1,1.32-.58,1.66,1.66,0,0,1,1.24.78,2.58,2.58,0,0,1,.61,1.61q0,1.75-2.19,3.39a14.55,14.55,0,0,1-9,2.91,12.72,12.72,0,0,1-8.6-3,12.5,12.5,0,0,1-4.22-9.35,11.86,11.86,0,0,1,2.49-7.37,13.06,13.06,0,0,1,5.47-4.23,13.74,13.74,0,0,1,5.39-1.05,12.13,12.13,0,0,1,7.89,2.64,10.39,10.39,0,0,1,2.63,3.13,8.1,8.1,0,0,1,1.15,4,4.69,4.69,0,0,1-.66,2.6A2,2,0,0,1,333.29,182.07Zm-10.84-4.56h2.47q1.56,0,1.56-1.44a3.08,3.08,0,0,0-.75-2.15,2.58,2.58,0,0,0-2-.83,2.53,2.53,0,0,0-2.15,1.07,3.42,3.42,0,0,0-.73,2,1.27,1.27,0,0,0,.35,1A1.94,1.94,0,0,0,322.45,177.51Z"/><path class="cls-6" d="M379.56,177.7l.35,8.6a3.45,3.45,0,0,0,.3,1.44,12.16,12.16,0,0,0,1.5,1.78,1.53,1.53,0,0,1,.37,1.1c0,1.07-.64,1.82-1.93,2.24a24.89,24.89,0,0,1-6.89.64,13.56,13.56,0,0,1-4.76-.59,2,2,0,0,1-1.44-2,1.4,1.4,0,0,1,.15-.73,12.7,12.7,0,0,1,1-1.13q1-1,1-6.84a12,12,0,0,0-.78-5,2.84,2.84,0,0,0-4.59-.24,8.24,8.24,0,0,0-.61,3.81v4.83a7.24,7.24,0,0,0,.18,2,12.6,12.6,0,0,0,1.21,2.07,1.91,1.91,0,0,1,.27,1c0,1-.67,1.66-2,2.12a21.09,21.09,0,0,1-6.25.68c-4.52,0-6.79-.93-6.79-2.8a1.6,1.6,0,0,1,.21-.9,4.52,4.52,0,0,1,1-.86,2,2,0,0,0,.8-1.06,18.4,18.4,0,0,0,.32-3c.12-1.85.17-3.8.17-5.83a6.1,6.1,0,0,0-.25-2.21,4,4,0,0,0-1.48-1.28,1.84,1.84,0,0,1-.2-3.21,16.23,16.23,0,0,1,3.52-1.58c1.56-.55,3.07-1,4.52-1.4a14.47,14.47,0,0,1,3-.58,1.63,1.63,0,0,1,1.23.54,1.82,1.82,0,0,1,.5,1.27c0,.05,0,.25,0,.61,0,.13,0,.25,0,.34,0,.78.32,1.18,1,1.18.39,0,.8-.31,1.24-.93a7,7,0,0,1,6.1-3,8.71,8.71,0,0,1,5.28,1.61,6.32,6.32,0,0,1,2.15,2.7A15,15,0,0,1,379.56,177.7Z"/><path class="cls-6" d="M398.71,168.67a13.42,13.42,0,0,1,7.83,2.32,12.55,12.55,0,0,1,3.89,4.32,12.1,12.1,0,0,1,1.51,5.81q0,5.3-4.86,9a17,17,0,0,1-10.62,3.54,13.44,13.44,0,0,1-9.45-3.32,10.88,10.88,0,0,1-3.51-8.4,11.82,11.82,0,0,1,4.29-9.42A16.22,16.22,0,0,1,398.71,168.67Zm-2,5.64a2.11,2.11,0,0,0-1.72.79,3.26,3.26,0,0,0-.64,2.11,20.39,20.39,0,0,0,.54,4,31.73,31.73,0,0,0,1.31,4.48,2.61,2.61,0,0,0,2.47,2c1.44,0,2.17-.92,2.17-2.76a22.61,22.61,0,0,0-.55-4.66A19.3,19.3,0,0,0,399,176,2.58,2.58,0,0,0,396.75,174.31Z"/><path class="cls-6" d="M427.59,175.09v8.25a3.76,3.76,0,0,0,.72,2.39,2.24,2.24,0,0,0,1.84.93,5.53,5.53,0,0,0,2.52-.88,1.47,1.47,0,0,1,.73-.22,1.37,1.37,0,0,1,1.08.71,2.7,2.7,0,0,1,.48,1.54,3.88,3.88,0,0,1-1.66,2.91,12.5,12.5,0,0,1-8.39,2.95,8.85,8.85,0,0,1-6.28-2.21,7.57,7.57,0,0,1-2.37-5.82V174.36c0-.38,0-.61-.13-.7s-.32-.13-.7-.13h-2.51a1.28,1.28,0,0,1-.91-.23,2,2,0,0,1-.19-1.09v-1.07a1.25,1.25,0,0,1,.56-1.08l11.18-7a2.15,2.15,0,0,1,1-.22h2a1,1,0,0,1,.81.28,2,2,0,0,1,.21,1.11v3.3a1.38,1.38,0,0,0,.23.95,1.53,1.53,0,0,0,1,.22h4.52a1.51,1.51,0,0,1,1.17.33,2.43,2.43,0,0,1,.27,1.4v1.44a2.9,2.9,0,0,1-.34,1.63,1.49,1.49,0,0,1-1.25.45h-4.42a1.32,1.32,0,0,0-.92.24A1.3,1.3,0,0,0,427.59,175.09Z"/><path class="cls-6" d="M466.88,164.71c-1.13,0-1.82.29-2.08.86a10.47,10.47,0,0,0-.55,2.49,24.91,24.91,0,0,0-.25,3.37,1.3,1.3,0,0,0,.58,1.24,4.79,4.79,0,0,0,2.2.35,2.55,2.55,0,0,0,1.59-.4,2.14,2.14,0,0,0,.7-1.31c.38-1.78,1.14-2.66,2.3-2.66q3,0,3,7.12,0,4.53-1.3,6.64a2.38,2.38,0,0,1-2.14,1.3c-1,0-1.52-.64-1.66-1.93a8.94,8.94,0,0,0-.31-1.76,2.36,2.36,0,0,0-.7-1,3.25,3.25,0,0,0-2.34-.76,2.13,2.13,0,0,0-1.49.39,2,2,0,0,0-.34,1.49c0,.13,0,.89,0,2.27q0,4.22.87,5.15a1.58,1.58,0,0,0,.6.48,13.24,13.24,0,0,0,1.6.3,1.73,1.73,0,0,1,1.08.66,2.08,2.08,0,0,1,.44,1.29c0,1.26-.74,2.06-2.2,2.42a40.19,40.19,0,0,1-8.91.76,27.31,27.31,0,0,1-6.94-.59,2.74,2.74,0,0,1-1.39-1,2.55,2.55,0,0,1-.54-1.57,2.14,2.14,0,0,1,.79-1.73,8.64,8.64,0,0,1,1.34-.61,2.8,2.8,0,0,0,1.63-2.49,124.35,124.35,0,0,0,.44-13.7,34.56,34.56,0,0,0-.31-6A2.63,2.63,0,0,0,451,164a5.22,5.22,0,0,1-1.6-.94,1.65,1.65,0,0,1-.38-1.16,2.13,2.13,0,0,1,1.05-1.8,4.46,4.46,0,0,1,2.59-.72c.65,0,1.6,0,2.86.15q4,.31,9.52.32a94.11,94.11,0,0,0,11.94-.49c.27,0,.48,0,.63,0a2.19,2.19,0,0,1,1.64,1,9.56,9.56,0,0,1,2.14,6.05,3.83,3.83,0,0,1-.7,2.42,2.26,2.26,0,0,1-1.86.9,2,2,0,0,1-1.29-.34,26.88,26.88,0,0,1-2.25-2.39,5.07,5.07,0,0,0-2.65-1.66A32.31,32.31,0,0,0,466.88,164.71Z"/><path class="cls-6" d="M494.64,168.67a13.47,13.47,0,0,1,7.84,2.32,12.52,12.52,0,0,1,3.88,4.32,12,12,0,0,1,1.51,5.81q0,5.3-4.86,9a17,17,0,0,1-10.62,3.54,13.44,13.44,0,0,1-9.45-3.32,10.88,10.88,0,0,1-3.51-8.4,11.79,11.79,0,0,1,4.3-9.42A16.17,16.17,0,0,1,494.64,168.67Zm-1.95,5.64a2.13,2.13,0,0,0-1.73.79,3.26,3.26,0,0,0-.64,2.11,19.8,19.8,0,0,0,.55,4,30.5,30.5,0,0,0,1.3,4.48,2.61,2.61,0,0,0,2.47,2c1.45,0,2.17-.92,2.17-2.76a22.61,22.61,0,0,0-.55-4.66,18.78,18.78,0,0,0-1.33-4.25A2.57,2.57,0,0,0,492.69,174.31Z"/><path class="cls-6" d="M523.11,170.09v13.23c0,2.83.93,4.25,2.81,4.25a2.72,2.72,0,0,0,1.39-.41,2.25,2.25,0,0,0,1-1,15.46,15.46,0,0,0,.54-5.22,36,36,0,0,0-.27-5.47,1.86,1.86,0,0,0-.34-.89,3.76,3.76,0,0,0-.93-.65,2.13,2.13,0,0,1-1.39-1.85c0-1,.79-1.71,2.39-2.1a37.16,37.16,0,0,1,9-1.13c1.64,0,2.47.88,2.47,2.62,0,.18,0,.54,0,1.1,0,.78-.06,1.73-.07,2.85V186.2c0,.55.47,1.06,1.41,1.51a1.84,1.84,0,0,1,1.2,1.71q0,2.21-5.2,3.4a26.16,26.16,0,0,1-5.91.7,3.29,3.29,0,0,1-1.6-.27,1.29,1.29,0,0,1-.5-1.05c-.08-1-.39-1.51-.93-1.51a1.08,1.08,0,0,0-.53.14c-.17.09-.66.41-1.49,1a9.19,9.19,0,0,1-5.3,1.69c-3.13,0-5.33-.9-6.62-2.71-1.09-1.52-1.63-4.06-1.63-7.64,0-1.34,0-2.48,0-3.42v-1.12a9.08,9.08,0,0,0-.38-3.09,2.93,2.93,0,0,0-1.38-1.55,4.85,4.85,0,0,1-1.2-.78,1.21,1.21,0,0,1-.26-.81c0-1.24.94-2.06,2.81-2.47a44.53,44.53,0,0,1,9.57-1Q523.11,168.86,523.11,170.09Z"/><path class="cls-6" d="M573.33,177.7l.34,8.6a3.43,3.43,0,0,0,.31,1.44,12.16,12.16,0,0,0,1.5,1.78,1.57,1.57,0,0,1,.36,1.1c0,1.07-.64,1.82-1.92,2.24a24.89,24.89,0,0,1-6.89.64,13.56,13.56,0,0,1-4.76-.59,2,2,0,0,1-1.44-2,1.4,1.4,0,0,1,.15-.73,11.85,11.85,0,0,1,1-1.13q1-1,1-6.84a12,12,0,0,0-.78-5,2.85,2.85,0,0,0-4.59-.24,8.24,8.24,0,0,0-.61,3.81v4.83a7.24,7.24,0,0,0,.18,2,11.87,11.87,0,0,0,1.21,2.07,1.91,1.91,0,0,1,.27,1c0,1-.67,1.66-2,2.12a21.14,21.14,0,0,1-6.25.68q-6.79,0-6.79-2.8a1.6,1.6,0,0,1,.21-.9,4.28,4.28,0,0,1,1-.86,2,2,0,0,0,.8-1.06,18.4,18.4,0,0,0,.32-3c.11-1.85.17-3.8.17-5.83a6,6,0,0,0-.26-2.21,4,4,0,0,0-1.47-1.28,1.84,1.84,0,0,1-.2-3.21,16,16,0,0,1,3.52-1.58c1.56-.55,3.06-1,4.51-1.4a14.59,14.59,0,0,1,3-.58,1.6,1.6,0,0,1,1.23.54,1.78,1.78,0,0,1,.51,1.27c0,.05,0,.25,0,.61a2.18,2.18,0,0,0,0,.34c0,.78.32,1.18,1,1.18.39,0,.81-.31,1.25-.93a7,7,0,0,1,6.1-3,8.68,8.68,0,0,1,5.27,1.61,6.18,6.18,0,0,1,2.15,2.7A15,15,0,0,1,573.33,177.7Z"/><path class="cls-6" d="M605.9,161.64v22.29a10.91,10.91,0,0,0,.16,2.44,2.06,2.06,0,0,0,.89,1,4.41,4.41,0,0,1,1.18,1.07,2,2,0,0,1,.31,1.13q0,1.95-3.93,3a28.64,28.64,0,0,1-7.08.9,1.53,1.53,0,0,1-1-.23,2,2,0,0,1-.31-1.11c-.08-.83-.37-1.25-.88-1.25a2.52,2.52,0,0,0-1.29.73,8.58,8.58,0,0,1-5.54,2,9.79,9.79,0,0,1-6.82-2.81A14.1,14.1,0,0,1,578.7,187a12.62,12.62,0,0,1-1.46-5.79,12.83,12.83,0,0,1,1.9-6.64,12,12,0,0,1,4.79-4.54,10.78,10.78,0,0,1,5-1.32A10.21,10.21,0,0,1,594,170a1.4,1.4,0,0,0,.59.2q.78,0,.78-2.1a2,2,0,0,0-.43-1.38,3.37,3.37,0,0,0-1.52-.82c-1-.32-1.54-.89-1.54-1.71,0-1.19,1.18-2.11,3.54-2.78a39.38,39.38,0,0,1,8.37-1.73C605.2,159.64,605.9,160.3,605.9,161.64Zm-13.26,12.28a2.81,2.81,0,0,0-2.51,1.68,12.17,12.17,0,0,0-1.25,5.91,8.63,8.63,0,0,0,1.2,5,2.69,2.69,0,0,0,2.32,1.22,2.44,2.44,0,0,0,2.31-1.85,17.67,17.67,0,0,0,.72-5.94c0-2.51-.29-4.18-.86-5A2.28,2.28,0,0,0,592.64,173.92Z"/></g></g></svg>