<svg width="173" height="114" viewBox="0 0 173 114" fill="none" xmlns="http://www.w3.org/2000/svg">
<g clip-path="url(#clip0)">
<path d="M61.3558 14.0381C64.915 15.2535 63.0052 20.8093 59.3592 19.5071C51.5464 16.7292 42.171 15.2535 36.4416 21.5905C31.7539 26.5386 30.5386 35.6536 36.7888 41.0358C44.3412 47.8069 55.1055 46.3311 55.7132 55.5329C55.9736 60.3942 51.72 63.9534 47.0323 64.3006C41.3897 64.6478 34.3582 63.2589 28.6288 59.092C25.5904 56.9218 28.976 52.2341 32.0143 54.4044C38.6986 59.2657 50.4178 60.1338 49.897 55.7933C49.5497 51.7133 40.9557 52.4077 32.8824 45.3762C20.2951 34.3515 27.9343 12.3888 45.817 11.5207C51.0255 11.2603 55.2791 11.9547 61.3558 14.0381V14.0381ZM27.5002 71.4189C24.2015 69.6827 26.8926 64.561 30.2781 66.2972C43.6467 73.4155 61.7898 71.5925 61.7898 55.5329C61.7898 43.64 46.1642 41.4698 41.7369 37.9106C34.7922 32.4417 38.4382 17.0765 60.0536 25.8442C63.4392 27.2331 61.3558 32.6153 57.7966 31.1395C44.6884 25.8442 42.4314 31.2263 45.2961 33.4834C48.508 35.914 67.5192 39.3864 67.5192 55.5329C67.5192 71.4189 53.4562 78.8845 37.2229 74.9781C34.2714 74.3704 30.8858 73.2419 27.5002 71.4189V71.4189ZM94.6905 58.224C93.1279 58.224 91.8258 56.9218 91.8258 55.2724C91.8258 53.6231 93.1279 52.4077 94.6905 52.4077H98.8573L96.253 45.9839C95.7322 44.5081 96.4266 42.7719 97.8156 42.2511C99.3781 41.6434 101.028 42.3379 101.635 43.7268L105.889 54.1439C106.062 54.4912 106.149 54.8384 106.149 55.2724C106.149 56.9218 104.76 58.224 103.111 58.224H94.6905V58.224ZM90.4368 73.2419C89.916 74.7177 88.2666 75.4121 86.704 74.8913C85.2283 74.1968 84.5338 72.5474 85.1415 71.0717L87.2249 65.7763C87.7457 64.7346 88.8742 63.9534 89.916 63.9534H107.885C109.188 63.9534 110.316 64.9082 110.663 66.0368L112.747 71.0717C113.268 72.5474 112.66 74.1968 111.184 74.8913C109.708 75.4121 107.972 74.8045 107.365 73.2419L105.976 69.8564H91.9126L90.4368 73.2419ZM78.0231 73.2419C77.3286 74.7177 75.6793 75.4121 74.2035 74.8913C72.8146 74.1968 72.0333 72.5474 72.5541 71.0717L96.253 11.8679C96.8607 10.3054 98.5969 9.61088 99.9858 10.2185C100.854 10.479 101.375 11.1734 101.635 11.8679L125.247 71.0717C125.855 72.5474 125.16 74.1968 123.685 74.8913C122.209 75.4121 120.473 74.7177 119.865 73.2419L98.9441 20.5488L78.0231 73.2419ZM151.637 72.7211C151.637 74.2836 150.335 75.5858 148.772 75.5858C147.123 75.5858 145.821 74.2836 145.821 72.7211V14.6458C145.821 13.0832 147.123 11.7811 148.772 11.7811C150.335 11.7811 151.637 13.0832 151.637 14.6458V72.7211ZM140.005 72.7211C140.005 74.2836 138.703 75.5858 137.14 75.5858C135.491 75.5858 134.189 74.2836 134.189 72.7211V14.6458C134.189 13.0832 135.491 11.7811 137.14 11.7811C138.703 11.7811 140.005 13.0832 140.005 14.6458V72.7211Z" fill="black"/>
<path d="M8.46774 102.29C9.69355 102.29 10.6478 102.554 11.3306 103.081C12.0134 103.608 12.3656 104.387 12.3871 105.419C12.3871 106.419 12.0538 107.191 11.3871 107.734C10.7204 108.277 9.82796 108.559 8.70968 108.581H6.35484V113.71H5V102.29H8.46774ZM8.70968 107.323C9.39785 107.323 9.94086 107.156 10.3387 106.823C10.7366 106.489 10.9355 106.027 10.9355 105.435C10.9355 104.844 10.7392 104.382 10.3468 104.048C9.9543 103.715 9.4086 103.548 8.70968 103.548H6.35484V107.323H8.70968V107.323ZM31.4194 102.29C32.914 102.29 34.0134 102.538 34.7177 103.032C35.422 103.527 35.7742 104.323 35.7742 105.419C35.7742 106.226 35.5349 106.89 35.0564 107.411C34.578 107.933 33.8656 108.28 32.9194 108.452L36.1613 113.71H34.5L31.4032 108.581H29.6613V113.71H28.3064V102.29H31.4194V102.29ZM31.2742 107.323C32.3387 107.323 33.1129 107.175 33.5968 106.879C34.0806 106.583 34.3226 106.102 34.3226 105.435C34.3226 104.79 34.1048 104.315 33.6694 104.008C33.2339 103.702 32.5591 103.548 31.6452 103.548H29.6613V107.323H31.2742V107.323ZM53.2581 102.29V113.71H51.9032V102.29H53.2581ZM71.5484 102.29L78.1613 111.774H78.1935V102.29H79.5484V113.71H77.8387L71.2258 104.226H71.1935V113.71H69.8387V102.29H71.5484ZM103.79 102.29V103.548H100.016V113.71H98.6613V103.548H94.8871V102.29H103.79V102.29ZM126.306 102.29V103.548H120.484V107.129H125.919V108.387H120.484V112.452H126.597V113.71H119.129V102.29H126.306V102.29ZM145.548 102.29C147.043 102.29 148.142 102.538 148.847 103.032C149.551 103.527 149.903 104.323 149.903 105.419C149.903 106.226 149.664 106.89 149.185 107.411C148.707 107.933 147.995 108.28 147.048 108.452L150.29 113.71H148.629L145.532 108.581H143.79V113.71H142.435V102.29H145.548V102.29ZM145.403 107.323C146.468 107.323 147.242 107.175 147.726 106.879C148.21 106.583 148.452 106.102 148.452 105.435C148.452 104.79 148.234 104.315 147.798 104.008C147.363 103.702 146.688 103.548 145.774 103.548H143.79V107.323H145.403V107.323ZM169.371 102C170.758 102 171.823 102.446 172.565 103.339L171.452 104.306C171.022 103.629 170.328 103.28 169.371 103.258C168.651 103.258 168.065 103.43 167.613 103.774C167.161 104.118 166.935 104.586 166.935 105.177C166.935 105.694 167.108 106.102 167.452 106.403C167.796 106.704 168.441 107 169.387 107.29C170.613 107.645 171.481 108.078 171.992 108.589C172.503 109.099 172.758 109.79 172.758 110.661C172.758 111.672 172.382 112.478 171.629 113.081C170.876 113.683 169.914 113.989 168.742 114C167.957 114 167.258 113.86 166.645 113.581C166.032 113.301 165.559 112.914 165.226 112.419L166.387 111.468C166.634 111.876 166.978 112.191 167.419 112.411C167.86 112.632 168.328 112.742 168.823 112.742C169.5 112.742 170.083 112.551 170.573 112.169C171.062 111.788 171.306 111.317 171.306 110.758C171.306 110.253 171.164 109.855 170.879 109.565C170.594 109.274 170.124 109.027 169.468 108.823L168.161 108.387C167.183 108.054 166.492 107.637 166.089 107.137C165.685 106.637 165.484 106.022 165.484 105.29C165.484 104.323 165.844 103.535 166.565 102.927C167.285 102.32 168.22 102.011 169.371 102V102Z" fill="black"/>
</g>
<defs>
<clipPath id="clip0">
<rect width="172.758" height="114" fill="white"/>
</clipPath>
</defs>
</svg>
