<svg width="445" height="316" viewBox="0 0 445 316" fill="none" xmlns="http://www.w3.org/2000/svg">
<g clip-path="url(#clip0)">
<path d="M157.823 38.9126C166.978 42.2816 162.065 57.6819 152.687 54.0723C132.591 46.3721 108.475 42.2816 93.7372 59.8473C81.6792 73.5631 78.5531 98.8293 94.6302 113.748C114.057 132.517 141.745 128.427 143.309 153.933C143.978 167.408 133.037 177.274 120.979 178.237C106.465 179.199 88.3781 175.349 73.6406 163.799C65.8251 157.783 74.5337 144.789 82.349 150.805C99.5427 164.28 129.687 166.687 128.348 154.655C127.455 143.346 105.349 145.27 84.582 125.78C52.2042 95.2199 71.8542 34.3409 117.853 31.9346C131.251 31.2127 142.192 33.1376 157.823 38.9126ZM70.7376 197.968C62.2525 193.156 69.1747 178.959 77.8831 183.771C112.27 203.503 158.939 198.449 158.939 153.933C158.939 120.967 118.746 114.951 107.358 105.086C89.4945 89.9261 98.8729 47.3348 154.473 71.6383C163.182 75.4882 157.823 90.4073 148.668 86.3165C114.95 71.6383 109.144 86.5571 116.513 92.8136C124.775 99.5511 173.677 109.176 173.677 153.933C173.677 197.968 137.503 218.662 95.7469 207.834C88.1548 206.15 79.4462 203.021 70.7376 197.968ZM243.568 161.393C239.549 161.393 236.199 157.783 236.199 153.211C236.199 148.639 239.549 145.27 243.568 145.27H254.286L247.587 127.464C246.248 123.373 248.034 118.561 251.607 117.117C255.626 115.433 259.87 117.358 261.431 121.208L272.374 150.083C272.819 151.046 273.042 152.008 273.042 153.211C273.042 157.783 269.469 161.393 265.228 161.393H243.568ZM232.627 203.021C231.287 207.112 227.044 209.037 223.025 207.593C219.229 205.668 217.443 201.096 219.006 197.006L224.365 182.327C225.704 179.44 228.607 177.274 231.287 177.274H277.508C280.859 177.274 283.761 179.921 284.653 183.049L290.014 197.006C291.354 201.096 289.79 205.668 285.994 207.593C282.197 209.037 277.732 207.353 276.17 203.021L272.597 193.637H236.423L232.627 203.021ZM200.695 203.021C198.909 207.112 194.666 209.037 190.87 207.593C187.298 205.668 185.288 201.096 186.628 197.006L247.587 32.897C249.15 28.5658 253.616 26.6407 257.189 28.3249C259.422 29.047 260.762 30.9719 261.431 32.897L322.167 197.006C323.731 201.096 321.943 205.668 318.149 207.593C314.353 209.037 309.887 207.112 308.323 203.021L254.509 56.9598L200.695 203.021ZM390.049 201.578C390.049 205.909 386.7 209.519 382.68 209.519C378.438 209.519 375.089 205.909 375.089 201.578V40.5971C375.089 36.2657 378.438 32.6564 382.68 32.6564C386.7 32.6564 390.049 36.2657 390.049 40.5971V201.578ZM360.129 201.578C360.129 205.909 356.779 209.519 352.759 209.519C348.517 209.519 345.168 205.909 345.168 201.578V40.5971C345.168 36.2657 348.517 32.6564 352.759 32.6564C356.779 32.6564 360.129 36.2657 360.129 40.5971V201.578Z" fill="#10455B"/>
<path d="M21.7812 283.541C24.9343 283.541 27.3889 284.272 29.1452 285.733C30.9016 287.194 31.8075 289.353 31.8628 292.214C31.8628 294.986 31.0055 297.126 29.2906 298.631C27.5757 300.136 25.2801 300.918 22.4036 300.979H16.3463V315.196H12.8613V283.541H21.7812ZM22.4036 297.492C24.1737 297.492 25.5705 297.029 26.5938 296.106C27.6173 295.18 28.1289 293.899 28.1289 292.258C28.1289 290.62 27.624 289.34 26.6147 288.414C25.605 287.491 24.2014 287.028 22.4036 287.028H16.3463V297.492H22.4036ZM80.8187 283.541C84.6632 283.541 87.4912 284.228 89.3028 285.597C91.1145 286.97 92.0204 289.176 92.0204 292.214C92.0204 294.451 91.4049 296.292 90.174 297.736C88.9435 299.183 87.111 300.145 84.6771 300.621L93.0161 315.196H88.7428L80.7771 300.979H76.2965V315.196H72.8113V283.541H80.8187ZM80.4453 297.492C83.1834 297.492 85.1749 297.082 86.4196 296.261C87.664 295.441 88.2865 294.107 88.2865 292.258C88.2865 290.47 87.7263 289.154 86.6063 288.303C85.4861 287.455 83.7503 287.028 81.3996 287.028H76.2965V297.492H80.4453ZM136.993 283.541V315.196H133.508V283.541H136.993ZM184.041 283.541L201.051 309.83H201.134V283.541H204.619V315.196H200.221L183.211 288.907H183.128V315.196H179.643V283.541H184.041ZM266.974 283.541V287.028H257.267V315.196H253.782V287.028H244.074V283.541H266.974ZM324.891 283.541V287.028H309.916V296.954H323.896V300.441H309.916V311.709H325.64V315.196H306.43V283.541H324.891ZM374.387 283.541C378.232 283.541 381.059 284.228 382.872 285.597C384.683 286.97 385.589 289.176 385.589 292.214C385.589 294.451 384.974 296.292 383.742 297.736C382.512 299.183 380.681 300.145 378.245 300.621L386.584 315.196H382.312L374.345 300.979H369.865V315.196H366.379V283.541H374.387ZM374.014 297.492C376.753 297.492 378.744 297.082 379.989 296.261C381.234 295.441 381.856 294.107 381.856 292.258C381.856 290.47 381.296 289.154 380.174 288.303C379.055 287.455 377.319 287.028 374.968 287.028H369.865V297.492H374.014ZM435.665 282.737C439.233 282.737 441.973 283.973 443.881 286.448L441.018 289.129C439.912 287.252 438.127 286.285 435.665 286.224C433.813 286.224 432.306 286.701 431.143 287.654C429.981 288.608 429.399 289.905 429.399 291.543C429.399 292.976 429.844 294.107 430.729 294.942C431.614 295.776 433.273 296.596 435.706 297.4C438.86 298.384 441.093 299.585 442.407 301.001C443.722 302.415 444.378 304.33 444.378 306.745C444.378 309.547 443.41 311.781 441.474 313.453C439.537 315.121 437.062 315.969 434.047 316C432.028 316 430.23 315.612 428.653 314.839C427.077 314.062 425.86 312.99 425.003 311.618L427.99 308.981C428.625 310.112 429.51 310.986 430.644 311.595C431.779 312.208 432.982 312.513 434.256 312.513C435.997 312.513 437.497 311.983 438.757 310.925C440.015 309.868 440.643 308.563 440.643 307.013C440.643 305.614 440.277 304.51 439.544 303.706C438.811 302.9 437.602 302.215 435.915 301.65L432.553 300.441C430.037 299.518 428.26 298.362 427.223 296.976C426.184 295.59 425.667 293.886 425.667 291.856C425.667 289.176 426.593 286.992 428.448 285.306C430.3 283.624 432.705 282.767 435.665 282.737Z" fill="#10455B"/>
</g>
<defs>
<clipPath id="clip0">
<rect width="445" height="316" fill="white"/>
</clipPath>
</defs>
</svg>
