<svg width="1907" height="350" viewBox="0 0 1907 350" fill="none" xmlns="http://www.w3.org/2000/svg">
<g clip-path="url(#clip0)">
<path d="M71.7188 128.744C78.9453 129.428 85.0977 131.088 90.1758 133.725C95.3516 136.361 98.8672 138.217 100.723 139.291C102.676 140.365 104.287 140.902 105.557 140.902C106.924 140.902 108.047 140.609 108.926 140.023C109.805 139.438 110.586 138.754 111.27 137.973C111.953 137.191 112.539 136.361 113.027 135.482C113.516 134.506 114.004 133.627 114.492 132.846H127.969V201.547H117.422C115.273 199.301 112.832 194.418 110.098 186.898C107.363 179.281 105.02 173.227 103.066 168.734C101.211 164.242 98.8672 160.043 96.0352 156.137C89.7852 147.445 81.6797 142.318 71.7188 140.756V128.744ZM41.9824 340.268C36.2207 337.631 32.168 335.775 29.8242 334.701C27.4805 333.529 25.0391 332.943 22.5 332.943C20.0586 332.943 17.3242 335.629 14.2969 341H0.673828V268.637H10.7812C12.9297 270.883 14.834 273.959 16.4941 277.865C18.252 281.771 20.0586 286.02 21.9141 290.609C23.8672 295.102 25.9668 299.74 28.2129 304.525C30.459 309.311 33.1934 313.754 36.416 317.855C43.6426 326.938 52.8223 332.064 63.9551 333.236V345.248C55.166 344.467 47.8418 342.807 41.9824 340.268ZM76.1133 333.09C86.6602 331.82 94.8145 327.523 100.576 320.199C105.654 313.656 108.193 306.186 108.193 297.787C108.193 289.291 106.68 282.504 103.652 277.426C100.625 272.25 96.6211 267.709 91.6406 263.803C86.7578 259.799 81.1426 256.186 74.7949 252.963C68.4473 249.74 61.9531 246.566 55.3125 243.441C48.7695 240.219 42.3242 236.898 35.9766 233.48C29.7266 229.965 24.1602 225.961 19.2773 221.469C8.24219 211.312 2.72461 198.959 2.72461 184.408C2.72461 169.662 7.75391 157.064 17.8125 146.615C28.5547 135.678 42.4707 129.623 59.5605 128.451V140.609C47.4512 142.172 39.2969 148.373 35.0977 159.213C33.7305 162.729 33.0469 167.123 33.0469 172.396C33.0469 177.67 34.6094 182.602 37.7344 187.191C40.8594 191.781 44.9609 195.883 50.0391 199.496C55.1172 203.109 60.8789 206.43 67.3242 209.457C73.8672 212.484 80.5078 215.561 87.2461 218.686C94.082 221.811 100.723 225.18 107.168 228.793C113.711 232.406 119.521 236.605 124.6 241.391C135.928 252.23 141.592 265.316 141.592 280.648C141.592 297.25 135.586 311.703 123.574 324.008C110.977 337.094 95.1562 344.223 76.1133 345.395V333.09Z" fill="white"/>
<path d="M316.641 266.293C290.469 275.766 277.383 289.584 277.383 307.748C277.383 315.072 279.141 320.98 282.656 325.473C286.172 329.867 291.396 332.064 298.33 332.064C305.361 332.064 311.465 329.477 316.641 324.301V338.217C309.121 342.709 300.625 344.955 291.152 344.955C281.68 344.955 274.062 344.027 268.301 342.172C262.637 340.316 257.852 337.777 253.945 334.555C245.84 328.012 241.787 319.369 241.787 308.627C241.787 286.459 261.465 269.711 300.82 258.383C306.387 256.723 311.66 255.258 316.641 253.988V266.293ZM281.924 213.852C287.295 215.902 289.98 220.59 289.98 227.914C289.98 232.602 288.32 236.361 285 239.193C281.68 242.025 277.188 243.441 271.523 243.441C265.957 243.441 261.514 241.928 258.193 238.9C254.971 235.873 253.359 231.967 253.359 227.182C253.359 222.396 254.482 218.1 256.729 214.291C258.975 210.482 262.148 207.113 266.25 204.184C274.746 198.031 285.439 194.467 298.33 193.49V204.623C290.42 205.404 284.951 208.48 281.924 213.852ZM369.082 326.498C374.453 326.498 377.871 321.615 379.336 311.85L386.807 315.805C385.83 325.277 383.193 332.504 378.896 337.484C374.697 342.465 367.959 344.955 358.682 344.955C351.455 344.955 346.084 343.637 342.568 341C336.904 336.703 332.314 330.209 328.799 321.518V230.258C328.799 224.203 327.188 218.979 323.965 214.584C320.84 210.092 316.348 207.064 310.488 205.502V193.49C343.594 195.248 360.146 212.729 360.146 245.932V315.219C360.146 322.738 363.125 326.498 369.082 326.498Z" fill="white"/>
<path d="M753.604 187.338C753.604 158.334 740.127 143.832 713.174 143.832C708.877 143.832 705.068 144.125 701.748 144.711V132.846H714.492C752.773 132.846 777.578 142.807 788.906 162.729C792.91 169.662 794.912 177.523 794.912 186.312C794.912 195.004 793.301 202.719 790.078 209.457C786.953 216.195 782.217 222.055 775.869 227.035C762.197 237.777 743.154 243.148 718.74 243.148H701.748V232.162C719.521 232.162 732.461 228.988 740.566 222.641C749.258 215.609 753.604 203.842 753.604 187.338ZM689.59 306.137C689.59 312.875 689.834 317.465 690.322 319.906C690.908 322.25 692.031 324.057 693.691 325.326C695.352 326.498 697.354 327.426 699.697 328.109C702.041 328.695 704.58 329.281 707.314 329.867C710.049 330.355 712.686 331.186 715.225 332.357V341H632.461V332.357C634.121 331.186 635.977 330.355 638.027 329.867C640.176 329.379 642.227 328.793 644.18 328.109C648.867 326.645 651.504 323.91 652.09 319.906C652.676 315.805 652.969 311.117 652.969 305.844V167.855C652.969 157.016 651.699 150.57 649.16 148.52C647.109 146.859 644.229 145.59 640.518 144.711C636.904 143.734 634.219 142.66 632.461 141.488V132.846H689.59V306.137Z" fill="white"/>
<path d="M936.27 231.137V312.143C936.27 320.932 938.418 326.156 942.715 327.816C944.082 328.402 945.547 328.891 947.109 329.281C952.285 330.746 955.947 332.064 958.096 333.236V341H887.49V333.236C889.346 332.064 891.299 331.137 893.35 330.453C895.4 329.672 897.305 328.793 899.062 327.816C903.066 325.766 905.068 322.445 905.068 317.855V233.041C905.068 221.811 904.141 215.316 902.285 213.559C900.527 211.801 898.77 210.531 897.012 209.75C895.352 208.969 893.594 208.334 891.738 207.846C889.883 207.26 888.271 206.43 886.904 205.355V196.42H934.512L936.27 231.137ZM981.094 235.824C976.797 235.824 973.428 234.799 970.986 232.748C968.545 230.697 967.324 228.158 967.324 225.131C967.324 222.104 968.594 219.125 971.133 216.195C970.254 215.609 969.131 215.316 967.764 215.316C961.123 215.414 954.678 220.102 948.428 229.379V206.82C955.654 197.836 963.857 193.344 973.037 193.344C983.584 193.344 990.664 197.934 994.277 207.113C995.449 209.945 996.035 213.754 996.035 218.539C996.035 223.324 994.619 227.426 991.787 230.844C988.955 234.164 985.391 235.824 981.094 235.824Z" fill="white"/>
<path d="M1245.06 209.018C1236.95 209.018 1229.53 212.191 1222.79 218.539V202.572C1231.39 196.42 1241.49 193.344 1253.12 193.344C1266.59 193.344 1277.48 196.859 1285.78 203.891C1294.28 211.215 1298.53 221.518 1298.53 234.799V311.85C1298.53 321.127 1300.43 326.547 1304.24 328.109C1305.41 328.598 1306.68 328.988 1308.05 329.281C1311.76 330.258 1314.64 331.576 1316.69 333.236V341H1260V331.039C1260 329.184 1260.83 327.475 1262.49 325.912C1264.15 324.35 1265.37 323.031 1266.15 321.957C1266.93 320.785 1267.32 319.125 1267.32 316.977V233.334C1267.32 217.123 1259.9 209.018 1245.06 209.018ZM1210.63 311.264C1210.63 320.443 1212.59 325.961 1216.49 327.816C1217.67 328.305 1218.94 328.793 1220.3 329.281C1224.31 330.551 1227.24 331.869 1229.09 333.236V341H1160.83V333.236C1162.59 331.869 1164.79 330.746 1167.42 329.867C1170.16 328.988 1172.11 328.305 1173.28 327.816C1174.55 327.328 1175.62 326.449 1176.5 325.18C1178.36 322.641 1179.29 318.1 1179.29 311.557V227.035C1179.29 217.367 1177.38 211.752 1173.57 210.189C1172.4 209.701 1171.13 209.262 1169.77 208.871C1165.47 207.895 1162.39 206.723 1160.54 205.355V196.42H1210.63V311.264Z" fill="white"/>
<path d="M1661.95 253.695C1661.95 225.57 1654.92 209.75 1640.86 206.234V193.637C1659.12 195.297 1673.18 202.963 1683.05 216.635C1692.32 229.428 1696.96 246.078 1696.96 266.586H1614.05V253.695H1661.95ZM1641.45 332.064C1658.44 331.283 1670.5 323.275 1677.63 308.041C1679.68 303.646 1681.44 299.154 1682.9 294.564L1695.5 299.252C1690.03 319.662 1678.85 333.383 1661.95 340.414C1656 342.855 1649.16 344.32 1641.45 344.809V332.064ZM1601.75 259.994C1601.75 301.986 1610.93 325.619 1629.29 330.893V344.369C1610.15 342.221 1594.96 334.262 1583.73 320.492C1572.5 306.918 1566.88 289.877 1566.88 269.369C1566.88 247.787 1572.5 230.062 1583.73 216.195C1595.06 202.23 1610.05 194.662 1628.7 193.49V205.648C1610.73 207.797 1601.75 225.912 1601.75 259.994Z" fill="white"/>
<path d="M1847.11 231.137V312.143C1847.11 320.932 1849.26 326.156 1853.55 327.816C1854.92 328.402 1856.39 328.891 1857.95 329.281C1863.12 330.746 1866.79 332.064 1868.94 333.236V341H1798.33V333.236C1800.19 332.064 1802.14 331.137 1804.19 330.453C1806.24 329.672 1808.14 328.793 1809.9 327.816C1813.91 325.766 1815.91 322.445 1815.91 317.855V233.041C1815.91 221.811 1814.98 215.316 1813.12 213.559C1811.37 211.801 1809.61 210.531 1807.85 209.75C1806.19 208.969 1804.43 208.334 1802.58 207.846C1800.72 207.26 1799.11 206.43 1797.74 205.355V196.42H1845.35L1847.11 231.137ZM1891.93 235.824C1887.64 235.824 1884.27 234.799 1881.83 232.748C1879.38 230.697 1878.16 228.158 1878.16 225.131C1878.16 222.104 1879.43 219.125 1881.97 216.195C1881.09 215.609 1879.97 215.316 1878.6 215.316C1871.96 215.414 1865.52 220.102 1859.27 229.379V206.82C1866.49 197.836 1874.7 193.344 1883.88 193.344C1894.42 193.344 1901.5 197.934 1905.12 207.113C1906.29 209.945 1906.88 213.754 1906.88 218.539C1906.88 223.324 1905.46 227.426 1902.63 230.844C1899.79 234.164 1896.23 235.824 1891.93 235.824Z" fill="white"/>
<path d="M488.8 117.135H524.2C530.709 117.153 535.981 122.425 536 128.934V335.434C535.981 341.944 530.709 347.215 524.2 347.234H488.8C482.291 347.215 477.019 341.944 477 335.434V128.934C477.019 122.425 482.291 117.153 488.8 117.135Z" fill="#D1D4D1"/>
<path d="M477 199.779V335.478C477.019 341.987 482.291 347.259 488.8 347.278H524.2C530.709 347.259 535.981 341.987 536 335.478V211.579C527.467 217.316 516.533 218.102 507.267 213.644C497.473 208.039 489.449 200.192 477 199.779Z" fill="#67B9CC"/>
<path d="M506.5 93.5348C506.5 93.5348 477 50.1697 477 31.5847C477.864 16.1302 491.04 4.27157 506.5 5.03484C521.96 4.27157 535.137 16.1302 536 31.5847C536 50.1697 506.5 93.5348 506.5 93.5348Z" fill="#67B9CC"/>
<path d="M1054.94 190.151H1078.76C1083.14 190.164 1086.69 193.712 1086.71 198.092V337.059C1086.69 341.44 1083.14 344.987 1078.76 345H1054.94C1050.56 344.987 1047.01 341.44 1047 337.059V198.092C1047.01 193.712 1050.56 190.164 1054.94 190.151Z" fill="#D1D4D1"/>
<path d="M1047 305.295V337.059C1047.01 341.44 1050.56 344.987 1054.94 345H1078.76C1083.14 344.987 1086.69 341.44 1086.71 337.059V313.236C1080.96 317.097 1073.6 317.626 1067.37 314.626C1060.78 310.854 1055.38 305.573 1047 305.295Z" fill="#F0C419"/>
<path d="M1066.85 177.581C1066.85 177.581 1047 148.398 1047 135.891C1047.58 125.49 1056.45 117.51 1066.85 118.023C1077.26 117.51 1086.12 125.49 1086.7 135.891C1086.7 148.398 1066.85 177.581 1066.85 177.581Z" fill="#F0C419"/>
<path d="M1456.4 110.636H1415.6C1408.1 110.655 1402.02 116.094 1402 122.808V335.828C1402.02 342.542 1408.1 347.98 1415.6 348H1456.4C1463.9 347.98 1469.98 342.542 1470 335.828V122.808C1469.98 116.094 1463.9 110.655 1456.4 110.636Z" fill="#D1D4D1"/>
<path d="M1470 232V336.873C1469.98 343.011 1463.9 347.982 1456.4 348H1415.6C1408.1 347.982 1402.02 343.011 1402 336.873V243.127C1411.83 248.538 1424.44 249.279 1435.12 245.074C1446.4 239.789 1455.65 232.389 1470 232Z" fill="#D75E72"/>
<path d="M1436 91.526C1436 91.526 1470 46.6958 1470 27.4829C1469 11.5063 1453.82 -0.753004 1436 0.0360485C1418.18 -0.753004 1403 11.5063 1402 27.4829C1402 46.6958 1436 91.526 1436 91.526Z" fill="#D75E72"/>
<path d="M1469.53 149.979V349.197H1468.36C1454 349.197 1443.31 346.463 1436.28 340.994C1429.34 335.525 1425.88 326.639 1425.88 314.334V215.896H1406.39V204.178C1407.86 202.615 1409.71 201.443 1411.96 200.662C1414.3 199.881 1416.65 199.051 1418.99 198.172C1424.75 196.023 1428.42 192.508 1429.98 187.625C1435.15 173.367 1439.21 164.236 1442.14 160.232C1445.07 156.131 1447.65 152.811 1449.9 150.271L1469.53 149.979ZM1482.57 331.619C1490.48 331.619 1496.04 329.08 1499.27 324.002C1500.63 321.756 1501.71 319.217 1502.49 316.385C1503.27 313.455 1504.15 310.525 1505.12 307.596L1516.99 312.283C1514.55 323.611 1511.52 331.424 1507.91 335.721C1504.29 339.92 1500.54 342.996 1496.63 344.949C1492.82 346.902 1488.13 348.318 1482.57 349.197V331.619ZM1482.57 199.783H1508.93V215.896H1482.57V199.783Z" fill="#D75E72"/>
</g>
<defs>
<clipPath id="clip0">
<rect width="1907" height="350" fill="white"/>
</clipPath>
</defs>
</svg>
